<svg width="500" height="747" viewBox="0 0 500 747" fill="none" xmlns="http://www.w3.org/2000/svg">
<path d="M84.6113 186.125L167.515 234.563L250.131 187.987L167.371 140.221L84.6113 186.125Z" stroke="#3A86FF" stroke-width="2" stroke-miterlimit="10" stroke-linecap="round" stroke-linejoin="round"/>
<path d="M167.516 234.562V326.384L84.6119 280.48V186.124L167.516 234.562Z" stroke="#3A86FF" stroke-width="2" stroke-miterlimit="10" stroke-linecap="round" stroke-linejoin="round"/>
<path d="M167.515 326.386L250.13 279.88V187.988L167.515 234.564V326.386Z" stroke="#3A86FF" stroke-width="2" stroke-miterlimit="10" stroke-linecap="round" stroke-linejoin="round"/>
<path d="M167.373 47.138L250.277 95.5898L332.892 48.9999L250.133 1.23401L167.373 47.138Z" stroke="#3A86FF" stroke-width="2" stroke-miterlimit="10" stroke-linecap="round" stroke-linejoin="round"/>
<path d="M250.278 95.5878V188L167.374 140.251V47.136L250.278 95.5878Z" stroke="#3A86FF" stroke-width="2" stroke-miterlimit="10" stroke-linecap="round" stroke-linejoin="round"/>
<path d="M250.276 187.399L332.892 140.893V49.0009L250.276 95.5908V187.399Z" stroke="#3A86FF" stroke-width="2" stroke-miterlimit="10" stroke-linecap="round" stroke-linejoin="round"/>
<path d="M332.893 141.498L415.797 189.936L498.412 143.36L415.652 95.5939L332.893 141.498Z" stroke="#3A86FF" stroke-width="2" stroke-miterlimit="10" stroke-linecap="round" stroke-linejoin="round"/>
<path d="M415.797 189.934V282.862L333 234.221L332.893 141.496L415.797 189.934Z" stroke="#3A86FF" stroke-width="2" stroke-miterlimit="10" stroke-linecap="round" stroke-linejoin="round"/>
<path d="M415.795 283.143L498.41 235.239V143.361L415.795 189.937V283.143Z" stroke="#3A86FF" stroke-width="2" stroke-miterlimit="10" stroke-linecap="round" stroke-linejoin="round"/>
<path d="M333.035 234.567L415.954 283.019L498.5 235.19L416 189.658L333.035 234.567Z" stroke="#3A86FF" stroke-width="2" stroke-miterlimit="10" stroke-linecap="round" stroke-linejoin="round"/>
<path d="M415.954 283.018V374.826L333.035 328.922V234.566L415.954 283.018Z" stroke="#3A86FF" stroke-width="2" stroke-miterlimit="10" stroke-linecap="round" stroke-linejoin="round"/>
<path d="M415.955 374.825L498.556 328.32L498.5 235.189L415.955 283.018V374.825Z" stroke="#3A86FF" stroke-width="2" stroke-miterlimit="10" stroke-linecap="round" stroke-linejoin="round"/>
<path d="M250.002 375.038L332.92 423.49L416.07 375.038L332.761 329.134L250.002 375.038Z" stroke="#3A86FF" stroke-width="2" stroke-miterlimit="10" stroke-linecap="round" stroke-linejoin="round"/>
<path d="M332.921 423.489V515.297L250.003 469.393V375.037L332.921 423.489Z" stroke="#3A86FF" stroke-width="2" stroke-miterlimit="10" stroke-linecap="round" stroke-linejoin="round"/>
<path d="M332.923 515.297L415.523 468.791L416.073 375.037L332.923 423.489V515.297Z" stroke="#3A86FF" stroke-width="2" stroke-miterlimit="10" stroke-linecap="round" stroke-linejoin="round"/>
<path d="M251 605.714L333.904 654.152L416.519 607.576L332.835 561L251 605.714Z" stroke="#3A86FF" stroke-width="2" stroke-miterlimit="10" stroke-linecap="round" stroke-linejoin="round"/>
<path d="M333.904 654.154V745.976L251 700.058V605.716L333.904 654.154Z" stroke="#3A86FF" stroke-width="2" stroke-miterlimit="10" stroke-linecap="round" stroke-linejoin="round"/>
<path d="M333.903 745.973L416.518 699.453V607.575L333.903 654.151V745.973Z" stroke="#3A86FF" stroke-width="2" stroke-miterlimit="10" stroke-linecap="round" stroke-linejoin="round"/>
<path d="M83.9219 469.854L167.592 516.43L250.207 469.854L166.522 423.278L83.9219 469.854Z" stroke="#3A86FF" stroke-width="2" stroke-miterlimit="10" stroke-linecap="round" stroke-linejoin="round"/>
<path d="M167.592 516.429V608.251L84.6877 562.347L83.9219 469.853L167.592 516.429Z" stroke="#3A86FF" stroke-width="2" stroke-miterlimit="10" stroke-linecap="round" stroke-linejoin="round"/>
<path d="M167.592 608.251L250.208 561.745V469.853L167.592 516.429V608.251Z" stroke="#3A86FF" stroke-width="2" stroke-miterlimit="10" stroke-linecap="round" stroke-linejoin="round"/>
<path d="M1 421.416L83.9186 469.854L166.519 423.278L82.8492 376.702L1 421.416Z" stroke="#3A86FF" stroke-width="2" stroke-miterlimit="10" stroke-linecap="round" stroke-linejoin="round"/>
<path d="M83.9191 469.855L84.6849 562.349L1.00049 515.759V421.417L83.9191 469.855Z" stroke="#3A86FF" stroke-width="2" stroke-miterlimit="10" stroke-linecap="round" stroke-linejoin="round"/>
<path d="M84.6863 562.346L166.521 515.154V423.276L83.9204 469.852L84.6863 562.346Z" stroke="#3A86FF" stroke-width="2" stroke-miterlimit="10" stroke-linecap="round" stroke-linejoin="round"/>
</svg>
