<svg width="177" height="12" viewBox="0 0 177 12" fill="none" xmlns="http://www.w3.org/2000/svg">
<path d="M0.316 1.06H3.172C3.93733 1.06 4.642 1.186 5.286 1.438C5.93 1.69 6.48533 2.04 6.952 2.488C7.428 2.92667 7.79667 3.44933 8.058 4.056C8.32867 4.66267 8.464 5.32067 8.464 6.03C8.464 6.73933 8.32867 7.39733 8.058 8.004C7.79667 8.61067 7.428 9.138 6.952 9.586C6.48533 10.0247 5.93 10.37 5.286 10.622C4.642 10.874 3.93733 11 3.172 11H0.316V1.06ZM3.172 9.782C3.76933 9.782 4.31067 9.68867 4.796 9.502C5.29067 9.31533 5.71067 9.054 6.056 8.718C6.40133 8.382 6.66733 7.98533 6.854 7.528C7.05 7.07067 7.148 6.57133 7.148 6.03C7.148 5.48867 7.05 4.98933 6.854 4.532C6.66733 4.07467 6.40133 3.678 6.056 3.342C5.71067 3.006 5.29067 2.74467 4.796 2.558C4.31067 2.37133 3.76933 2.278 3.172 2.278H1.618V9.782H3.172ZM13.2058 11.14C12.6925 11.14 12.2212 11.0513 11.7918 10.874C11.3625 10.6873 10.9892 10.4307 10.6718 10.104C10.3638 9.77733 10.1212 9.39467 9.94384 8.956C9.76651 8.508 9.67784 8.02267 9.67784 7.5C9.67784 6.98667 9.75718 6.51067 9.91584 6.072C10.0838 5.624 10.3218 5.23667 10.6298 4.91C10.9378 4.58333 11.3112 4.32667 11.7498 4.14C12.1885 3.95333 12.6832 3.86 13.2338 3.86C13.7845 3.86 14.2745 3.96733 14.7038 4.182C15.1425 4.38733 15.5065 4.672 15.7958 5.036C16.0945 5.39067 16.3092 5.81067 16.4398 6.296C16.5798 6.772 16.6312 7.28067 16.5938 7.822H10.8958C10.9052 8.13933 10.9705 8.43333 11.0918 8.704C11.2225 8.97467 11.3905 9.21267 11.5958 9.418C11.8012 9.614 12.0438 9.768 12.3238 9.88C12.6038 9.992 12.9025 10.048 13.2198 10.048C13.6585 10.048 14.0505 9.95933 14.3958 9.782C14.7505 9.59533 15.0352 9.292 15.2498 8.872H16.4818C16.3978 9.18 16.2625 9.474 16.0758 9.754C15.8892 10.0247 15.6558 10.2627 15.3758 10.468C15.1052 10.6733 14.7878 10.8367 14.4238 10.958C14.0598 11.0793 13.6538 11.14 13.2058 11.14ZM13.1918 4.924C12.9398 4.924 12.6925 4.96133 12.4498 5.036C12.2072 5.11067 11.9832 5.22733 11.7778 5.386C11.5818 5.54467 11.4092 5.74533 11.2598 5.988C11.1105 6.23067 11.0078 6.52467 10.9518 6.87H15.3198C15.2078 6.21667 14.9558 5.73133 14.5638 5.414C14.1718 5.08733 13.7145 4.924 13.1918 4.924ZM20.5853 11.14C20.2119 11.14 19.8573 11.0933 19.5213 11C19.1853 10.9067 18.8913 10.7713 18.6393 10.594C18.3873 10.4073 18.1819 10.1787 18.0233 9.908C17.8646 9.63733 17.7713 9.32467 17.7433 8.97H18.9753C19.0126 9.18467 19.0826 9.36667 19.1853 9.516C19.2973 9.656 19.4279 9.77267 19.5773 9.866C19.7266 9.95933 19.8853 10.0247 20.0533 10.062C20.2306 10.0993 20.4126 10.118 20.5993 10.118C20.9819 10.118 21.2993 10.0433 21.5513 9.894C21.8126 9.73533 21.9433 9.502 21.9433 9.194C21.9433 8.914 21.8546 8.68533 21.6773 8.508C21.4999 8.33067 21.2013 8.186 20.7813 8.074L19.7733 7.808C19.1666 7.64933 18.7139 7.39267 18.4153 7.038C18.1166 6.68333 17.9673 6.254 17.9673 5.75C17.9673 5.46067 18.0279 5.19933 18.1493 4.966C18.2706 4.73267 18.4386 4.53667 18.6533 4.378C18.8679 4.21 19.1199 4.084 19.4093 4C19.7079 3.90667 20.0346 3.86 20.3893 3.86C20.7626 3.86 21.0986 3.91133 21.3973 4.014C21.6959 4.11667 21.9526 4.26133 22.1673 4.448C22.3913 4.62533 22.5686 4.83533 22.6993 5.078C22.8299 5.32067 22.9093 5.582 22.9373 5.862H21.7333C21.6399 5.554 21.4719 5.31133 21.2293 5.134C20.9959 4.95667 20.7159 4.868 20.3893 4.868C20.0533 4.868 19.7686 4.94733 19.5353 5.106C19.3019 5.25533 19.1853 5.46533 19.1853 5.736C19.1853 5.99733 19.2693 6.20733 19.4373 6.366C19.6053 6.51533 19.8759 6.64133 20.2493 6.744L21.3693 7.038C21.9573 7.18733 22.4006 7.43933 22.6993 7.794C23.0073 8.13933 23.1613 8.578 23.1613 9.11C23.1613 9.45533 23.0959 9.75867 22.9653 10.02C22.8346 10.272 22.6526 10.482 22.4193 10.65C22.1859 10.818 21.9106 10.9393 21.5933 11.014C21.2853 11.098 20.9493 11.14 20.5853 11.14ZM27.9744 11.14C27.4424 11.14 26.9524 11.0467 26.5044 10.86C26.0564 10.664 25.6691 10.4027 25.3424 10.076C25.0251 9.74 24.7731 9.35267 24.5864 8.914C24.4091 8.47533 24.3204 8.004 24.3204 7.5C24.3204 6.996 24.4091 6.52467 24.5864 6.086C24.7731 5.64733 25.0251 5.26467 25.3424 4.938C25.6691 4.602 26.0564 4.34067 26.5044 4.154C26.9524 3.958 27.4424 3.86 27.9744 3.86C28.4131 3.86 28.8238 3.92533 29.2064 4.056C29.5984 4.18667 29.9484 4.36867 30.2564 4.602C30.5644 4.826 30.8211 5.10133 31.0264 5.428C31.2411 5.74533 31.3998 6.09067 31.5024 6.464H30.2144C30.0558 6.016 29.7804 5.65667 29.3884 5.386C28.9964 5.106 28.5251 4.966 27.9744 4.966C27.6104 4.966 27.2791 5.03133 26.9804 5.162C26.6818 5.29267 26.4251 5.47467 26.2104 5.708C25.9958 5.932 25.8278 6.198 25.7064 6.506C25.5944 6.814 25.5384 7.14533 25.5384 7.5C25.5384 7.85467 25.5944 8.186 25.7064 8.494C25.8278 8.802 25.9958 9.07267 26.2104 9.306C26.4251 9.53 26.6818 9.70733 26.9804 9.838C27.2791 9.96867 27.6104 10.034 27.9744 10.034C28.5251 10.034 28.9964 9.89867 29.3884 9.628C29.7804 9.348 30.0558 8.984 30.2144 8.536H31.5024C31.3998 8.91867 31.2411 9.26867 31.0264 9.586C30.8211 9.90333 30.5644 10.1787 30.2564 10.412C29.9484 10.636 29.5984 10.8133 29.2064 10.944C28.8238 11.0747 28.4131 11.14 27.9744 11.14ZM36.2049 11.14C35.6729 11.14 35.1829 11.0467 34.7349 10.86C34.2869 10.664 33.8996 10.4027 33.5729 10.076C33.2462 9.74933 32.9896 9.36667 32.8029 8.928C32.6256 8.48 32.5369 8.004 32.5369 7.5C32.5369 6.996 32.6256 6.52467 32.8029 6.086C32.9896 5.638 33.2462 5.25067 33.5729 4.924C33.8996 4.59733 34.2869 4.34067 34.7349 4.154C35.1829 3.958 35.6729 3.86 36.2049 3.86C36.7276 3.86 37.2129 3.958 37.6609 4.154C38.1089 4.34067 38.4962 4.59733 38.8229 4.924C39.1496 5.25067 39.4016 5.638 39.5789 6.086C39.7656 6.52467 39.8589 6.996 39.8589 7.5C39.8589 8.004 39.7656 8.48 39.5789 8.928C39.4016 9.36667 39.1496 9.74933 38.8229 10.076C38.4962 10.4027 38.1089 10.664 37.6609 10.86C37.2129 11.0467 36.7276 11.14 36.2049 11.14ZM36.2049 10.02C36.5689 10.02 36.9002 9.95467 37.1989 9.824C37.4976 9.69333 37.7496 9.516 37.9549 9.292C38.1696 9.05867 38.3329 8.79267 38.4449 8.494C38.5662 8.186 38.6269 7.85467 38.6269 7.5C38.6269 7.15467 38.5662 6.828 38.4449 6.52C38.3329 6.212 38.1696 5.946 37.9549 5.722C37.7496 5.48867 37.4976 5.30667 37.1989 5.176C36.9002 5.04533 36.5689 4.98 36.2049 4.98C35.8409 4.98 35.5096 5.04533 35.2109 5.176C34.9122 5.30667 34.6556 5.48867 34.4409 5.722C34.2262 5.946 34.0582 6.212 33.9369 6.52C33.8249 6.828 33.7689 7.15467 33.7689 7.5C33.7689 7.85467 33.8249 8.186 33.9369 8.494C34.0582 8.79267 34.2262 9.05867 34.4409 9.292C34.6556 9.516 34.9122 9.69333 35.2109 9.824C35.5096 9.95467 35.8409 10.02 36.2049 10.02ZM40.3867 4H41.7307L44.1247 9.306L46.5187 4H47.8627L44.6287 11H43.6207L40.3867 4ZM51.9109 11.14C51.3976 11.14 50.9263 11.0513 50.4969 10.874C50.0676 10.6873 49.6943 10.4307 49.3769 10.104C49.0689 9.77733 48.8263 9.39467 48.6489 8.956C48.4716 8.508 48.3829 8.02267 48.3829 7.5C48.3829 6.98667 48.4623 6.51067 48.6209 6.072C48.7889 5.624 49.0269 5.23667 49.3349 4.91C49.6429 4.58333 50.0163 4.32667 50.4549 4.14C50.8936 3.95333 51.3883 3.86 51.9389 3.86C52.4896 3.86 52.9796 3.96733 53.4089 4.182C53.8476 4.38733 54.2116 4.672 54.5009 5.036C54.7996 5.39067 55.0143 5.81067 55.1449 6.296C55.2849 6.772 55.3363 7.28067 55.2989 7.822H49.6009C49.6103 8.13933 49.6756 8.43333 49.7969 8.704C49.9276 8.97467 50.0956 9.21267 50.3009 9.418C50.5063 9.614 50.7489 9.768 51.0289 9.88C51.3089 9.992 51.6076 10.048 51.9249 10.048C52.3636 10.048 52.7556 9.95933 53.1009 9.782C53.4556 9.59533 53.7403 9.292 53.9549 8.872H55.1869C55.1029 9.18 54.9676 9.474 54.7809 9.754C54.5943 10.0247 54.3609 10.2627 54.0809 10.468C53.8103 10.6733 53.4929 10.8367 53.1289 10.958C52.7649 11.0793 52.3589 11.14 51.9109 11.14ZM51.8969 4.924C51.6449 4.924 51.3976 4.96133 51.1549 5.036C50.9123 5.11067 50.6883 5.22733 50.4829 5.386C50.2869 5.54467 50.1143 5.74533 49.9649 5.988C49.8156 6.23067 49.7129 6.52467 49.6569 6.87H54.0249C53.9129 6.21667 53.6609 5.73133 53.2689 5.414C52.8769 5.08733 52.4196 4.924 51.8969 4.924ZM57.0363 4H58.2403V5.358C58.3057 5.134 58.4083 4.93333 58.5483 4.756C58.6883 4.57867 58.847 4.42933 59.0243 4.308C59.2017 4.18667 59.3883 4.09333 59.5843 4.028C59.7897 3.96267 59.995 3.93 60.2003 3.93C60.387 3.93 60.569 3.94867 60.7463 3.986V5.232C60.6343 5.18533 60.527 5.15733 60.4243 5.148C60.3217 5.12933 60.2097 5.12 60.0883 5.12C59.8643 5.12 59.6403 5.17133 59.4163 5.274C59.2017 5.36733 59.0057 5.512 58.8283 5.708C58.6603 5.904 58.5203 6.156 58.4083 6.464C58.2963 6.76267 58.2403 7.11733 58.2403 7.528V11H57.0363V4ZM67.6684 11.07C67.3604 11.07 67.0757 11.028 66.8144 10.944C66.553 10.8507 66.3244 10.72 66.1284 10.552C65.9417 10.3747 65.7924 10.1507 65.6804 9.88C65.5777 9.60933 65.5264 9.292 65.5264 8.928V5.106H64.0424V4H65.5264V2.054H66.7304V4H68.7464V5.106H66.7304V8.774C66.7304 9.222 66.8284 9.53467 67.0244 9.712C67.2204 9.88 67.5097 9.964 67.8924 9.964C68.0417 9.964 68.191 9.95467 68.3404 9.936C68.499 9.908 68.6344 9.87067 68.7464 9.824V10.902C68.597 10.9487 68.4337 10.986 68.2564 11.014C68.079 11.0513 67.883 11.07 67.6684 11.07ZM70.2844 11V0.499999H71.4884V5.078C71.7311 4.658 72.0484 4.35 72.4404 4.154C72.8324 3.958 73.2571 3.86 73.7144 3.86C74.1064 3.86 74.4657 3.92533 74.7924 4.056C75.1191 4.18667 75.3944 4.378 75.6184 4.63C75.8517 4.87267 76.0337 5.17133 76.1644 5.526C76.2951 5.87133 76.3604 6.25867 76.3604 6.688V11H75.1704V6.87C75.1704 6.282 75.0164 5.82 74.7084 5.484C74.4097 5.13867 74.0131 4.966 73.5184 4.966C73.2384 4.966 72.9724 5.022 72.7204 5.134C72.4777 5.246 72.2631 5.414 72.0764 5.638C71.8991 5.85267 71.7544 6.11867 71.6424 6.436C71.5397 6.75333 71.4884 7.11733 71.4884 7.528V11H70.2844ZM81.5105 11.14C80.9972 11.14 80.5259 11.0513 80.0965 10.874C79.6672 10.6873 79.2939 10.4307 78.9765 10.104C78.6685 9.77733 78.4259 9.39467 78.2485 8.956C78.0712 8.508 77.9825 8.02267 77.9825 7.5C77.9825 6.98667 78.0619 6.51067 78.2205 6.072C78.3885 5.624 78.6265 5.23667 78.9345 4.91C79.2425 4.58333 79.6159 4.32667 80.0545 4.14C80.4932 3.95333 80.9879 3.86 81.5385 3.86C82.0892 3.86 82.5792 3.96733 83.0085 4.182C83.4472 4.38733 83.8112 4.672 84.1005 5.036C84.3992 5.39067 84.6139 5.81067 84.7445 6.296C84.8845 6.772 84.9359 7.28067 84.8985 7.822H79.2005C79.2099 8.13933 79.2752 8.43333 79.3965 8.704C79.5272 8.97467 79.6952 9.21267 79.9005 9.418C80.1059 9.614 80.3485 9.768 80.6285 9.88C80.9085 9.992 81.2072 10.048 81.5245 10.048C81.9632 10.048 82.3552 9.95933 82.7005 9.782C83.0552 9.59533 83.3399 9.292 83.5545 8.872H84.7865C84.7025 9.18 84.5672 9.474 84.3805 9.754C84.1939 10.0247 83.9605 10.2627 83.6805 10.468C83.4099 10.6733 83.0925 10.8367 82.7285 10.958C82.3645 11.0793 81.9585 11.14 81.5105 11.14ZM81.4965 4.924C81.2445 4.924 80.9972 4.96133 80.7545 5.036C80.5119 5.11067 80.2879 5.22733 80.0825 5.386C79.8865 5.54467 79.7139 5.74533 79.5645 5.988C79.4152 6.23067 79.3125 6.52467 79.2565 6.87H83.6245C83.5125 6.21667 83.2605 5.73133 82.8685 5.414C82.4765 5.08733 82.0192 4.924 81.4965 4.924ZM90.4232 5.106H88.9392V4H90.4232V2.586C90.4232 2.222 90.4745 1.90467 90.5772 1.634C90.6892 1.36333 90.8385 1.13933 91.0252 0.962C91.2212 0.775333 91.4498 0.639999 91.7112 0.555999C91.9725 0.462666 92.2572 0.415999 92.5652 0.415999C92.7798 0.415999 92.9758 0.434666 93.1532 0.472C93.3305 0.5 93.4985 0.542 93.6572 0.598V1.662C93.5452 1.61533 93.4052 1.58267 93.2372 1.564C93.0785 1.536 92.9292 1.522 92.7892 1.522C92.3972 1.522 92.1032 1.61067 91.9072 1.788C91.7205 1.956 91.6272 2.264 91.6272 2.712V4H93.6572V5.106H91.6272V11H90.4232V5.106ZM97.4538 11.14C97.0711 11.14 96.7211 11.0747 96.4038 10.944C96.0865 10.804 95.8158 10.6127 95.5918 10.37C95.3678 10.1273 95.1905 9.83333 95.0598 9.488C94.9385 9.13333 94.8778 8.73667 94.8778 8.298V4H96.0818V8.116C96.0818 8.704 96.2218 9.17067 96.5018 9.516C96.7911 9.86133 97.1785 10.034 97.6638 10.034C97.9345 10.034 98.1865 9.978 98.4198 9.866C98.6625 9.74467 98.8678 9.57667 99.0358 9.362C99.2131 9.138 99.3531 8.86733 99.4558 8.55C99.5585 8.23267 99.6098 7.87333 99.6098 7.472V4H100.814V11H99.6098V9.922C99.3765 10.3327 99.0685 10.6407 98.6858 10.846C98.3125 11.042 97.9018 11.14 97.4538 11.14ZM105.799 11.07C105.491 11.07 105.207 11.028 104.945 10.944C104.684 10.8507 104.455 10.72 104.259 10.552C104.073 10.3747 103.923 10.1507 103.811 9.88C103.709 9.60933 103.657 9.292 103.657 8.928V5.106H102.173V4H103.657V2.054H104.861V4H106.877V5.106H104.861V8.774C104.861 9.222 104.959 9.53467 105.155 9.712C105.351 9.88 105.641 9.964 106.023 9.964C106.173 9.964 106.322 9.95467 106.471 9.936C106.63 9.908 106.765 9.87067 106.877 9.824V10.902C106.728 10.9487 106.565 10.986 106.387 11.014C106.21 11.0513 106.014 11.07 105.799 11.07ZM110.893 11.14C110.511 11.14 110.161 11.0747 109.843 10.944C109.526 10.804 109.255 10.6127 109.031 10.37C108.807 10.1273 108.63 9.83333 108.499 9.488C108.378 9.13333 108.317 8.73667 108.317 8.298V4H109.521V8.116C109.521 8.704 109.661 9.17067 109.941 9.516C110.231 9.86133 110.618 10.034 111.103 10.034C111.374 10.034 111.626 9.978 111.859 9.866C112.102 9.74467 112.307 9.57667 112.475 9.362C112.653 9.138 112.793 8.86733 112.895 8.55C112.998 8.23267 113.049 7.87333 113.049 7.472V4H114.253V11H113.049V9.922C112.816 10.3327 112.508 10.6407 112.125 10.846C111.752 11.042 111.341 11.14 110.893 11.14ZM116.523 4H117.727V5.358C117.792 5.134 117.895 4.93333 118.035 4.756C118.175 4.57867 118.333 4.42933 118.511 4.308C118.688 4.18667 118.875 4.09333 119.071 4.028C119.276 3.96267 119.481 3.93 119.687 3.93C119.873 3.93 120.055 3.94867 120.233 3.986V5.232C120.121 5.18533 120.013 5.15733 119.911 5.148C119.808 5.12933 119.696 5.12 119.575 5.12C119.351 5.12 119.127 5.17133 118.903 5.274C118.688 5.36733 118.492 5.512 118.315 5.708C118.147 5.904 118.007 6.156 117.895 6.464C117.783 6.76267 117.727 7.11733 117.727 7.528V11H116.523V4ZM124.386 11.14C123.872 11.14 123.401 11.0513 122.972 10.874C122.542 10.6873 122.169 10.4307 121.852 10.104C121.544 9.77733 121.301 9.39467 121.124 8.956C120.946 8.508 120.858 8.02267 120.858 7.5C120.858 6.98667 120.937 6.51067 121.096 6.072C121.264 5.624 121.502 5.23667 121.81 4.91C122.118 4.58333 122.491 4.32667 122.93 4.14C123.368 3.95333 123.863 3.86 124.414 3.86C124.964 3.86 125.454 3.96733 125.884 4.182C126.322 4.38733 126.686 4.672 126.976 5.036C127.274 5.39067 127.489 5.81067 127.62 6.296C127.76 6.772 127.811 7.28067 127.774 7.822H122.076C122.085 8.13933 122.15 8.43333 122.272 8.704C122.402 8.97467 122.57 9.21267 122.776 9.418C122.981 9.614 123.224 9.768 123.504 9.88C123.784 9.992 124.082 10.048 124.4 10.048C124.838 10.048 125.23 9.95933 125.576 9.782C125.93 9.59533 126.215 9.292 126.43 8.872H127.662C127.578 9.18 127.442 9.474 127.256 9.754C127.069 10.0247 126.836 10.2627 126.556 10.468C126.285 10.6733 125.968 10.8367 125.604 10.958C125.24 11.0793 124.834 11.14 124.386 11.14ZM124.372 4.924C124.12 4.924 123.872 4.96133 123.63 5.036C123.387 5.11067 123.163 5.22733 122.958 5.386C122.762 5.54467 122.589 5.74533 122.44 5.988C122.29 6.23067 122.188 6.52467 122.132 6.87H126.5C126.388 6.21667 126.136 5.73133 125.744 5.414C125.352 5.08733 124.894 4.924 124.372 4.924ZM135.996 11.14C135.464 11.14 134.974 11.0467 134.526 10.86C134.078 10.664 133.691 10.4027 133.364 10.076C133.037 9.74933 132.781 9.36667 132.594 8.928C132.417 8.48 132.328 8.004 132.328 7.5C132.328 6.996 132.417 6.52467 132.594 6.086C132.781 5.638 133.037 5.25067 133.364 4.924C133.691 4.59733 134.078 4.34067 134.526 4.154C134.974 3.958 135.464 3.86 135.996 3.86C136.519 3.86 137.004 3.958 137.452 4.154C137.9 4.34067 138.287 4.59733 138.614 4.924C138.941 5.25067 139.193 5.638 139.37 6.086C139.557 6.52467 139.65 6.996 139.65 7.5C139.65 8.004 139.557 8.48 139.37 8.928C139.193 9.36667 138.941 9.74933 138.614 10.076C138.287 10.4027 137.9 10.664 137.452 10.86C137.004 11.0467 136.519 11.14 135.996 11.14ZM135.996 10.02C136.36 10.02 136.691 9.95467 136.99 9.824C137.289 9.69333 137.541 9.516 137.746 9.292C137.961 9.05867 138.124 8.79267 138.236 8.494C138.357 8.186 138.418 7.85467 138.418 7.5C138.418 7.15467 138.357 6.828 138.236 6.52C138.124 6.212 137.961 5.946 137.746 5.722C137.541 5.48867 137.289 5.30667 136.99 5.176C136.691 5.04533 136.36 4.98 135.996 4.98C135.632 4.98 135.301 5.04533 135.002 5.176C134.703 5.30667 134.447 5.48867 134.232 5.722C134.017 5.946 133.849 6.212 133.728 6.52C133.616 6.828 133.56 7.15467 133.56 7.5C133.56 7.85467 133.616 8.186 133.728 8.494C133.849 8.79267 134.017 9.05867 134.232 9.292C134.447 9.516 134.703 9.69333 135.002 9.824C135.301 9.95467 135.632 10.02 135.996 10.02ZM141.857 5.106H140.373V4H141.857V2.586C141.857 2.222 141.908 1.90467 142.011 1.634C142.123 1.36333 142.272 1.13933 142.459 0.962C142.655 0.775333 142.883 0.639999 143.145 0.555999C143.406 0.462666 143.691 0.415999 143.999 0.415999C144.213 0.415999 144.409 0.434666 144.587 0.472C144.764 0.5 144.932 0.542 145.091 0.598V1.662C144.979 1.61533 144.839 1.58267 144.671 1.564C144.512 1.536 144.363 1.522 144.223 1.522C143.831 1.522 143.537 1.61067 143.341 1.788C143.154 1.956 143.061 2.264 143.061 2.712V4H145.091V5.106H143.061V11H141.857V5.106ZM149.599 1.06H152.455C153.221 1.06 153.925 1.186 154.569 1.438C155.213 1.69 155.769 2.04 156.235 2.488C156.711 2.92667 157.08 3.44933 157.341 4.056C157.612 4.66267 157.747 5.32067 157.747 6.03C157.747 6.73933 157.612 7.39733 157.341 8.004C157.08 8.61067 156.711 9.138 156.235 9.586C155.769 10.0247 155.213 10.37 154.569 10.622C153.925 10.874 153.221 11 152.455 11H149.599V1.06ZM152.455 9.782C153.053 9.782 153.594 9.68867 154.079 9.502C154.574 9.31533 154.994 9.054 155.339 8.718C155.685 8.382 155.951 7.98533 156.137 7.528C156.333 7.07067 156.431 6.57133 156.431 6.03C156.431 5.48867 156.333 4.98933 156.137 4.532C155.951 4.07467 155.685 3.678 155.339 3.342C154.994 3.006 154.574 2.74467 154.079 2.558C153.594 2.37133 153.053 2.278 152.455 2.278H150.901V9.782H152.455ZM162.489 11.14C161.976 11.14 161.504 11.0513 161.075 10.874C160.646 10.6873 160.272 10.4307 159.955 10.104C159.647 9.77733 159.404 9.39467 159.227 8.956C159.05 8.508 158.961 8.02267 158.961 7.5C158.961 6.98667 159.04 6.51067 159.199 6.072C159.367 5.624 159.605 5.23667 159.913 4.91C160.221 4.58333 160.594 4.32667 161.033 4.14C161.472 3.95333 161.966 3.86 162.517 3.86C163.068 3.86 163.558 3.96733 163.987 4.182C164.426 4.38733 164.79 4.672 165.079 5.036C165.378 5.39067 165.592 5.81067 165.723 6.296C165.863 6.772 165.914 7.28067 165.877 7.822H160.179C160.188 8.13933 160.254 8.43333 160.375 8.704C160.506 8.97467 160.674 9.21267 160.879 9.418C161.084 9.614 161.327 9.768 161.607 9.88C161.887 9.992 162.186 10.048 162.503 10.048C162.942 10.048 163.334 9.95933 163.679 9.782C164.034 9.59533 164.318 9.292 164.533 8.872H165.765C165.681 9.18 165.546 9.474 165.359 9.754C165.172 10.0247 164.939 10.2627 164.659 10.468C164.388 10.6733 164.071 10.8367 163.707 10.958C163.343 11.0793 162.937 11.14 162.489 11.14ZM162.475 4.924C162.223 4.924 161.976 4.96133 161.733 5.036C161.49 5.11067 161.266 5.22733 161.061 5.386C160.865 5.54467 160.692 5.74533 160.543 5.988C160.394 6.23067 160.291 6.52467 160.235 6.87H164.603C164.491 6.21667 164.239 5.73133 163.847 5.414C163.455 5.08733 162.998 4.924 162.475 4.924ZM167.755 1.06H173.537V2.292H169.057V5.302H172.599V6.534H169.057V11H167.755V1.06ZM175.613 2.124C175.371 2.124 175.165 2.04467 174.997 1.886C174.829 1.718 174.745 1.51267 174.745 1.27C174.745 1.03667 174.829 0.836 174.997 0.668C175.165 0.499999 175.371 0.415999 175.613 0.415999C175.856 0.415999 176.057 0.499999 176.215 0.668C176.374 0.836 176.453 1.03667 176.453 1.27C176.453 1.51267 176.374 1.718 176.215 1.886C176.057 2.04467 175.856 2.124 175.613 2.124ZM174.997 4H176.201V11H174.997V4Z" fill="#898991"/>
</svg>
