<svg width="172" height="12" viewBox="0 0 172 12" fill="none" xmlns="http://www.w3.org/2000/svg">
<path d="M0.316 1.06H3.172C3.93733 1.06 4.642 1.186 5.286 1.438C5.93 1.69 6.48533 2.04 6.952 2.488C7.428 2.92667 7.79667 3.44933 8.058 4.056C8.32867 4.66267 8.464 5.32067 8.464 6.03C8.464 6.73933 8.32867 7.39733 8.058 8.004C7.79667 8.61067 7.428 9.138 6.952 9.586C6.48533 10.0247 5.93 10.37 5.286 10.622C4.642 10.874 3.93733 11 3.172 11H0.316V1.06ZM3.172 9.782C3.76933 9.782 4.31067 9.68867 4.796 9.502C5.29067 9.31533 5.71067 9.054 6.056 8.718C6.40133 8.382 6.66733 7.98533 6.854 7.528C7.05 7.07067 7.148 6.57133 7.148 6.03C7.148 5.48867 7.05 4.98933 6.854 4.532C6.66733 4.07467 6.40133 3.678 6.056 3.342C5.71067 3.006 5.29067 2.74467 4.796 2.558C4.31067 2.37133 3.76933 2.278 3.172 2.278H1.618V9.782H3.172ZM10.7715 2.124C10.5288 2.124 10.3235 2.04467 10.1555 1.886C9.98748 1.718 9.90348 1.51267 9.90348 1.27C9.90348 1.03667 9.98748 0.836 10.1555 0.668C10.3235 0.499999 10.5288 0.415999 10.7715 0.415999C11.0142 0.415999 11.2148 0.499999 11.3735 0.668C11.5322 0.836 11.6115 1.03667 11.6115 1.27C11.6115 1.51267 11.5322 1.718 11.3735 1.886C11.2148 2.04467 11.0142 2.124 10.7715 2.124ZM10.1555 4H11.3595V11H10.1555V4ZM15.8958 11.14C15.5225 11.14 15.1678 11.0933 14.8318 11C14.4958 10.9067 14.2018 10.7713 13.9498 10.594C13.6978 10.4073 13.4925 10.1787 13.3338 9.908C13.1751 9.63733 13.0818 9.32467 13.0538 8.97H14.2858C14.3231 9.18467 14.3931 9.36667 14.4958 9.516C14.6078 9.656 14.7385 9.77267 14.8878 9.866C15.0371 9.95933 15.1958 10.0247 15.3638 10.062C15.5411 10.0993 15.7231 10.118 15.9098 10.118C16.2925 10.118 16.6098 10.0433 16.8618 9.894C17.1231 9.73533 17.2538 9.502 17.2538 9.194C17.2538 8.914 17.1651 8.68533 16.9878 8.508C16.8105 8.33067 16.5118 8.186 16.0918 8.074L15.0838 7.808C14.4771 7.64933 14.0245 7.39267 13.7258 7.038C13.4271 6.68333 13.2778 6.254 13.2778 5.75C13.2778 5.46067 13.3385 5.19933 13.4598 4.966C13.5811 4.73267 13.7491 4.53667 13.9638 4.378C14.1785 4.21 14.4305 4.084 14.7198 4C15.0185 3.90667 15.3451 3.86 15.6998 3.86C16.0731 3.86 16.4091 3.91133 16.7078 4.014C17.0065 4.11667 17.2631 4.26133 17.4778 4.448C17.7018 4.62533 17.8791 4.83533 18.0098 5.078C18.1405 5.32067 18.2198 5.582 18.2478 5.862H17.0438C16.9505 5.554 16.7825 5.31133 16.5398 5.134C16.3065 4.95667 16.0265 4.868 15.6998 4.868C15.3638 4.868 15.0791 4.94733 14.8458 5.106C14.6125 5.25533 14.4958 5.46533 14.4958 5.736C14.4958 5.99733 14.5798 6.20733 14.7478 6.366C14.9158 6.51533 15.1865 6.64133 15.5598 6.744L16.6798 7.038C17.2678 7.18733 17.7111 7.43933 18.0098 7.794C18.3178 8.13933 18.4718 8.578 18.4718 9.11C18.4718 9.45533 18.4065 9.75867 18.2758 10.02C18.1451 10.272 17.9631 10.482 17.7298 10.65C17.4965 10.818 17.2211 10.9393 16.9038 11.014C16.5958 11.098 16.2598 11.14 15.8958 11.14ZM23.285 11.14C22.753 11.14 22.263 11.0467 21.815 10.86C21.367 10.664 20.9796 10.4027 20.653 10.076C20.3356 9.74 20.0836 9.35267 19.897 8.914C19.7196 8.47533 19.631 8.004 19.631 7.5C19.631 6.996 19.7196 6.52467 19.897 6.086C20.0836 5.64733 20.3356 5.26467 20.653 4.938C20.9796 4.602 21.367 4.34067 21.815 4.154C22.263 3.958 22.753 3.86 23.285 3.86C23.7236 3.86 24.1343 3.92533 24.517 4.056C24.909 4.18667 25.259 4.36867 25.567 4.602C25.875 4.826 26.1316 5.10133 26.337 5.428C26.5516 5.74533 26.7103 6.09067 26.813 6.464H25.525C25.3663 6.016 25.091 5.65667 24.699 5.386C24.307 5.106 23.8356 4.966 23.285 4.966C22.921 4.966 22.5896 5.03133 22.291 5.162C21.9923 5.29267 21.7356 5.47467 21.521 5.708C21.3063 5.932 21.1383 6.198 21.017 6.506C20.905 6.814 20.849 7.14533 20.849 7.5C20.849 7.85467 20.905 8.186 21.017 8.494C21.1383 8.802 21.3063 9.07267 21.521 9.306C21.7356 9.53 21.9923 9.70733 22.291 9.838C22.5896 9.96867 22.921 10.034 23.285 10.034C23.8356 10.034 24.307 9.89867 24.699 9.628C25.091 9.348 25.3663 8.984 25.525 8.536H26.813C26.7103 8.91867 26.5516 9.26867 26.337 9.586C26.1316 9.90333 25.875 10.1787 25.567 10.412C25.259 10.636 24.909 10.8133 24.517 10.944C24.1343 11.0747 23.7236 11.14 23.285 11.14ZM31.5154 11.14C30.9834 11.14 30.4934 11.0467 30.0454 10.86C29.5974 10.664 29.2101 10.4027 28.8834 10.076C28.5568 9.74933 28.3001 9.36667 28.1134 8.928C27.9361 8.48 27.8474 8.004 27.8474 7.5C27.8474 6.996 27.9361 6.52467 28.1134 6.086C28.3001 5.638 28.5568 5.25067 28.8834 4.924C29.2101 4.59733 29.5974 4.34067 30.0454 4.154C30.4934 3.958 30.9834 3.86 31.5154 3.86C32.0381 3.86 32.5234 3.958 32.9714 4.154C33.4194 4.34067 33.8068 4.59733 34.1334 4.924C34.4601 5.25067 34.7121 5.638 34.8894 6.086C35.0761 6.52467 35.1694 6.996 35.1694 7.5C35.1694 8.004 35.0761 8.48 34.8894 8.928C34.7121 9.36667 34.4601 9.74933 34.1334 10.076C33.8068 10.4027 33.4194 10.664 32.9714 10.86C32.5234 11.0467 32.0381 11.14 31.5154 11.14ZM31.5154 10.02C31.8794 10.02 32.2108 9.95467 32.5094 9.824C32.8081 9.69333 33.0601 9.516 33.2654 9.292C33.4801 9.05867 33.6434 8.79267 33.7554 8.494C33.8768 8.186 33.9374 7.85467 33.9374 7.5C33.9374 7.15467 33.8768 6.828 33.7554 6.52C33.6434 6.212 33.4801 5.946 33.2654 5.722C33.0601 5.48867 32.8081 5.30667 32.5094 5.176C32.2108 5.04533 31.8794 4.98 31.5154 4.98C31.1514 4.98 30.8201 5.04533 30.5214 5.176C30.2228 5.30667 29.9661 5.48867 29.7514 5.722C29.5368 5.946 29.3688 6.212 29.2474 6.52C29.1354 6.828 29.0794 7.15467 29.0794 7.5C29.0794 7.85467 29.1354 8.186 29.2474 8.494C29.3688 8.79267 29.5368 9.05867 29.7514 9.292C29.9661 9.516 30.2228 9.69333 30.5214 9.824C30.8201 9.95467 31.1514 10.02 31.5154 10.02ZM35.6973 4H37.0413L39.4353 9.306L41.8293 4H43.1733L39.9393 11H38.9313L35.6973 4ZM47.2215 11.14C46.7081 11.14 46.2368 11.0513 45.8075 10.874C45.3781 10.6873 45.0048 10.4307 44.6875 10.104C44.3795 9.77733 44.1368 9.39467 43.9595 8.956C43.7821 8.508 43.6935 8.02267 43.6935 7.5C43.6935 6.98667 43.7728 6.51067 43.9315 6.072C44.0995 5.624 44.3375 5.23667 44.6455 4.91C44.9535 4.58333 45.3268 4.32667 45.7655 4.14C46.2041 3.95333 46.6988 3.86 47.2495 3.86C47.8001 3.86 48.2901 3.96733 48.7195 4.182C49.1581 4.38733 49.5221 4.672 49.8115 5.036C50.1101 5.39067 50.3248 5.81067 50.4555 6.296C50.5955 6.772 50.6468 7.28067 50.6095 7.822H44.9115C44.9208 8.13933 44.9861 8.43333 45.1075 8.704C45.2381 8.97467 45.4061 9.21267 45.6115 9.418C45.8168 9.614 46.0595 9.768 46.3395 9.88C46.6195 9.992 46.9181 10.048 47.2355 10.048C47.6741 10.048 48.0661 9.95933 48.4115 9.782C48.7661 9.59533 49.0508 9.292 49.2655 8.872H50.4975C50.4135 9.18 50.2781 9.474 50.0915 9.754C49.9048 10.0247 49.6715 10.2627 49.3915 10.468C49.1208 10.6733 48.8035 10.8367 48.4395 10.958C48.0755 11.0793 47.6695 11.14 47.2215 11.14ZM47.2075 4.924C46.9555 4.924 46.7081 4.96133 46.4655 5.036C46.2228 5.11067 45.9988 5.22733 45.7935 5.386C45.5975 5.54467 45.4248 5.74533 45.2755 5.988C45.1261 6.23067 45.0235 6.52467 44.9675 6.87H49.3355C49.2235 6.21667 48.9715 5.73133 48.5795 5.414C48.1875 5.08733 47.7301 4.924 47.2075 4.924ZM52.3469 4H53.5509V5.358C53.6162 5.134 53.7189 4.93333 53.8589 4.756C53.9989 4.57867 54.1576 4.42933 54.3349 4.308C54.5122 4.18667 54.6989 4.09333 54.8949 4.028C55.1002 3.96267 55.3056 3.93 55.5109 3.93C55.6976 3.93 55.8796 3.94867 56.0569 3.986V5.232C55.9449 5.18533 55.8376 5.15733 55.7349 5.148C55.6322 5.12933 55.5202 5.12 55.3989 5.12C55.1749 5.12 54.9509 5.17133 54.7269 5.274C54.5122 5.36733 54.3162 5.512 54.1389 5.708C53.9709 5.904 53.8309 6.156 53.7189 6.464C53.6069 6.76267 53.5509 7.11733 53.5509 7.528V11H52.3469V4ZM62.9789 11.07C62.6709 11.07 62.3862 11.028 62.1249 10.944C61.8636 10.8507 61.6349 10.72 61.4389 10.552C61.2522 10.3747 61.1029 10.1507 60.9909 9.88C60.8882 9.60933 60.8369 9.292 60.8369 8.928V5.106H59.3529V4H60.8369V2.054H62.0409V4H64.0569V5.106H62.0409V8.774C62.0409 9.222 62.1389 9.53467 62.3349 9.712C62.5309 9.88 62.8202 9.964 63.2029 9.964C63.3522 9.964 63.5016 9.95467 63.6509 9.936C63.8096 9.908 63.9449 9.87067 64.0569 9.824V10.902C63.9076 10.9487 63.7442 10.986 63.5669 11.014C63.3896 11.0513 63.1936 11.07 62.9789 11.07ZM65.5949 11V0.499999H66.7989V5.078C67.0416 4.658 67.3589 4.35 67.7509 4.154C68.1429 3.958 68.5676 3.86 69.0249 3.86C69.4169 3.86 69.7763 3.92533 70.1029 4.056C70.4296 4.18667 70.7049 4.378 70.9289 4.63C71.1623 4.87267 71.3443 5.17133 71.4749 5.526C71.6056 5.87133 71.6709 6.25867 71.6709 6.688V11H70.4809V6.87C70.4809 6.282 70.3269 5.82 70.0189 5.484C69.7203 5.13867 69.3236 4.966 68.8289 4.966C68.5489 4.966 68.2829 5.022 68.0309 5.134C67.7883 5.246 67.5736 5.414 67.3869 5.638C67.2096 5.85267 67.0649 6.11867 66.9529 6.436C66.8503 6.75333 66.7989 7.11733 66.7989 7.528V11H65.5949ZM76.8211 11.14C76.3077 11.14 75.8364 11.0513 75.4071 10.874C74.9777 10.6873 74.6044 10.4307 74.2871 10.104C73.9791 9.77733 73.7364 9.39467 73.5591 8.956C73.3817 8.508 73.2931 8.02267 73.2931 7.5C73.2931 6.98667 73.3724 6.51067 73.5311 6.072C73.6991 5.624 73.9371 5.23667 74.2451 4.91C74.5531 4.58333 74.9264 4.32667 75.3651 4.14C75.8037 3.95333 76.2984 3.86 76.8491 3.86C77.3997 3.86 77.8897 3.96733 78.3191 4.182C78.7577 4.38733 79.1217 4.672 79.4111 5.036C79.7097 5.39067 79.9244 5.81067 80.0551 6.296C80.1951 6.772 80.2464 7.28067 80.2091 7.822H74.5111C74.5204 8.13933 74.5857 8.43333 74.7071 8.704C74.8377 8.97467 75.0057 9.21267 75.2111 9.418C75.4164 9.614 75.6591 9.768 75.9391 9.88C76.2191 9.992 76.5177 10.048 76.8351 10.048C77.2737 10.048 77.6657 9.95933 78.0111 9.782C78.3657 9.59533 78.6504 9.292 78.8651 8.872H80.0971C80.0131 9.18 79.8777 9.474 79.6911 9.754C79.5044 10.0247 79.2711 10.2627 78.9911 10.468C78.7204 10.6733 78.4031 10.8367 78.0391 10.958C77.6751 11.0793 77.2691 11.14 76.8211 11.14ZM76.8071 4.924C76.5551 4.924 76.3077 4.96133 76.0651 5.036C75.8224 5.11067 75.5984 5.22733 75.3931 5.386C75.1971 5.54467 75.0244 5.74533 74.8751 5.988C74.7257 6.23067 74.6231 6.52467 74.5671 6.87H78.9351C78.8231 6.21667 78.5711 5.73133 78.1791 5.414C77.7871 5.08733 77.3297 4.924 76.8071 4.924ZM85.7337 5.106H84.2497V4H85.7337V2.586C85.7337 2.222 85.7851 1.90467 85.8877 1.634C85.9997 1.36333 86.1491 1.13933 86.3357 0.962C86.5317 0.775333 86.7604 0.639999 87.0217 0.555999C87.2831 0.462666 87.5677 0.415999 87.8757 0.415999C88.0904 0.415999 88.2864 0.434666 88.4637 0.472C88.6411 0.5 88.8091 0.542 88.9677 0.598V1.662C88.8557 1.61533 88.7157 1.58267 88.5477 1.564C88.3891 1.536 88.2397 1.522 88.0997 1.522C87.7077 1.522 87.4137 1.61067 87.2177 1.788C87.0311 1.956 86.9377 2.264 86.9377 2.712V4H88.9677V5.106H86.9377V11H85.7337V5.106ZM92.7643 11.14C92.3817 11.14 92.0317 11.0747 91.7143 10.944C91.397 10.804 91.1263 10.6127 90.9023 10.37C90.6783 10.1273 90.501 9.83333 90.3703 9.488C90.249 9.13333 90.1883 8.73667 90.1883 8.298V4H91.3923V8.116C91.3923 8.704 91.5323 9.17067 91.8123 9.516C92.1017 9.86133 92.489 10.034 92.9743 10.034C93.245 10.034 93.497 9.978 93.7303 9.866C93.973 9.74467 94.1783 9.57667 94.3463 9.362C94.5237 9.138 94.6637 8.86733 94.7663 8.55C94.869 8.23267 94.9203 7.87333 94.9203 7.472V4H96.1243V11H94.9203V9.922C94.687 10.3327 94.379 10.6407 93.9963 10.846C93.623 11.042 93.2123 11.14 92.7643 11.14ZM101.11 11.07C100.802 11.07 100.517 11.028 100.256 10.944C99.9944 10.8507 99.7658 10.72 99.5698 10.552C99.3831 10.3747 99.2338 10.1507 99.1218 9.88C99.0191 9.60933 98.9678 9.292 98.9678 8.928V5.106H97.4838V4H98.9678V2.054H100.172V4H102.188V5.106H100.172V8.774C100.172 9.222 100.27 9.53467 100.466 9.712C100.662 9.88 100.951 9.964 101.334 9.964C101.483 9.964 101.632 9.95467 101.782 9.936C101.94 9.908 102.076 9.87067 102.188 9.824V10.902C102.038 10.9487 101.875 10.986 101.698 11.014C101.52 11.0513 101.324 11.07 101.11 11.07ZM106.204 11.14C105.821 11.14 105.471 11.0747 105.154 10.944C104.836 10.804 104.566 10.6127 104.342 10.37C104.118 10.1273 103.94 9.83333 103.81 9.488C103.688 9.13333 103.628 8.73667 103.628 8.298V4H104.832V8.116C104.832 8.704 104.972 9.17067 105.252 9.516C105.541 9.86133 105.928 10.034 106.414 10.034C106.684 10.034 106.936 9.978 107.17 9.866C107.412 9.74467 107.618 9.57667 107.786 9.362C107.963 9.138 108.103 8.86733 108.206 8.55C108.308 8.23267 108.36 7.87333 108.36 7.472V4H109.564V11H108.36V9.922C108.126 10.3327 107.818 10.6407 107.436 10.846C107.062 11.042 106.652 11.14 106.204 11.14ZM111.833 4H113.037V5.358C113.103 5.134 113.205 4.93333 113.345 4.756C113.485 4.57867 113.644 4.42933 113.821 4.308C113.999 4.18667 114.185 4.09333 114.381 4.028C114.587 3.96267 114.792 3.93 114.997 3.93C115.184 3.93 115.366 3.94867 115.543 3.986V5.232C115.431 5.18533 115.324 5.15733 115.221 5.148C115.119 5.12933 115.007 5.12 114.885 5.12C114.661 5.12 114.437 5.17133 114.213 5.274C113.999 5.36733 113.803 5.512 113.625 5.708C113.457 5.904 113.317 6.156 113.205 6.464C113.093 6.76267 113.037 7.11733 113.037 7.528V11H111.833V4ZM119.696 11.14C119.183 11.14 118.711 11.0513 118.282 10.874C117.853 10.6873 117.479 10.4307 117.162 10.104C116.854 9.77733 116.611 9.39467 116.434 8.956C116.257 8.508 116.168 8.02267 116.168 7.5C116.168 6.98667 116.247 6.51067 116.406 6.072C116.574 5.624 116.812 5.23667 117.12 4.91C117.428 4.58333 117.801 4.32667 118.24 4.14C118.679 3.95333 119.173 3.86 119.724 3.86C120.275 3.86 120.765 3.96733 121.194 4.182C121.633 4.38733 121.997 4.672 122.286 5.036C122.585 5.39067 122.799 5.81067 122.93 6.296C123.07 6.772 123.121 7.28067 123.084 7.822H117.386C117.395 8.13933 117.461 8.43333 117.582 8.704C117.713 8.97467 117.881 9.21267 118.086 9.418C118.291 9.614 118.534 9.768 118.814 9.88C119.094 9.992 119.393 10.048 119.71 10.048C120.149 10.048 120.541 9.95933 120.886 9.782C121.241 9.59533 121.525 9.292 121.74 8.872H122.972C122.888 9.18 122.753 9.474 122.566 9.754C122.379 10.0247 122.146 10.2627 121.866 10.468C121.595 10.6733 121.278 10.8367 120.914 10.958C120.55 11.0793 120.144 11.14 119.696 11.14ZM119.682 4.924C119.43 4.924 119.183 4.96133 118.94 5.036C118.697 5.11067 118.473 5.22733 118.268 5.386C118.072 5.54467 117.899 5.74533 117.75 5.988C117.601 6.23067 117.498 6.52467 117.442 6.87H121.81C121.698 6.21667 121.446 5.73133 121.054 5.414C120.662 5.08733 120.205 4.924 119.682 4.924ZM131.306 11.14C130.774 11.14 130.284 11.0467 129.836 10.86C129.388 10.664 129.001 10.4027 128.674 10.076C128.348 9.74933 128.091 9.36667 127.904 8.928C127.727 8.48 127.638 8.004 127.638 7.5C127.638 6.996 127.727 6.52467 127.904 6.086C128.091 5.638 128.348 5.25067 128.674 4.924C129.001 4.59733 129.388 4.34067 129.836 4.154C130.284 3.958 130.774 3.86 131.306 3.86C131.829 3.86 132.314 3.958 132.762 4.154C133.21 4.34067 133.598 4.59733 133.924 4.924C134.251 5.25067 134.503 5.638 134.68 6.086C134.867 6.52467 134.96 6.996 134.96 7.5C134.96 8.004 134.867 8.48 134.68 8.928C134.503 9.36667 134.251 9.74933 133.924 10.076C133.598 10.4027 133.21 10.664 132.762 10.86C132.314 11.0467 131.829 11.14 131.306 11.14ZM131.306 10.02C131.67 10.02 132.002 9.95467 132.3 9.824C132.599 9.69333 132.851 9.516 133.056 9.292C133.271 9.05867 133.434 8.79267 133.546 8.494C133.668 8.186 133.728 7.85467 133.728 7.5C133.728 7.15467 133.668 6.828 133.546 6.52C133.434 6.212 133.271 5.946 133.056 5.722C132.851 5.48867 132.599 5.30667 132.3 5.176C132.002 5.04533 131.67 4.98 131.306 4.98C130.942 4.98 130.611 5.04533 130.312 5.176C130.014 5.30667 129.757 5.48867 129.542 5.722C129.328 5.946 129.16 6.212 129.038 6.52C128.926 6.828 128.87 7.15467 128.87 7.5C128.87 7.85467 128.926 8.186 129.038 8.494C129.16 8.79267 129.328 9.05867 129.542 9.292C129.757 9.516 130.014 9.69333 130.312 9.824C130.611 9.95467 130.942 10.02 131.306 10.02ZM137.167 5.106H135.683V4H137.167V2.586C137.167 2.222 137.219 1.90467 137.321 1.634C137.433 1.36333 137.583 1.13933 137.769 0.962C137.965 0.775333 138.194 0.639999 138.455 0.555999C138.717 0.462666 139.001 0.415999 139.309 0.415999C139.524 0.415999 139.72 0.434666 139.897 0.472C140.075 0.5 140.243 0.542 140.401 0.598V1.662C140.289 1.61533 140.149 1.58267 139.981 1.564C139.823 1.536 139.673 1.522 139.533 1.522C139.141 1.522 138.847 1.61067 138.651 1.788C138.465 1.956 138.371 2.264 138.371 2.712V4H140.401V5.106H138.371V11H137.167V5.106ZM144.91 1.06H147.766C148.531 1.06 149.236 1.186 149.88 1.438C150.524 1.69 151.079 2.04 151.546 2.488C152.022 2.92667 152.39 3.44933 152.652 4.056C152.922 4.66267 153.058 5.32067 153.058 6.03C153.058 6.73933 152.922 7.39733 152.652 8.004C152.39 8.61067 152.022 9.138 151.546 9.586C151.079 10.0247 150.524 10.37 149.88 10.622C149.236 10.874 148.531 11 147.766 11H144.91V1.06ZM147.766 9.782C148.363 9.782 148.904 9.68867 149.39 9.502C149.884 9.31533 150.304 9.054 150.65 8.718C150.995 8.382 151.261 7.98533 151.448 7.528C151.644 7.07067 151.742 6.57133 151.742 6.03C151.742 5.48867 151.644 4.98933 151.448 4.532C151.261 4.07467 150.995 3.678 150.65 3.342C150.304 3.006 149.884 2.74467 149.39 2.558C148.904 2.37133 148.363 2.278 147.766 2.278H146.212V9.782H147.766ZM157.8 11.14C157.286 11.14 156.815 11.0513 156.386 10.874C155.956 10.6873 155.583 10.4307 155.266 10.104C154.958 9.77733 154.715 9.39467 154.538 8.956C154.36 8.508 154.272 8.02267 154.272 7.5C154.272 6.98667 154.351 6.51067 154.51 6.072C154.678 5.624 154.916 5.23667 155.224 4.91C155.532 4.58333 155.905 4.32667 156.344 4.14C156.782 3.95333 157.277 3.86 157.828 3.86C158.378 3.86 158.868 3.96733 159.298 4.182C159.736 4.38733 160.1 4.672 160.39 5.036C160.688 5.39067 160.903 5.81067 161.034 6.296C161.174 6.772 161.225 7.28067 161.188 7.822H155.49C155.499 8.13933 155.564 8.43333 155.686 8.704C155.816 8.97467 155.984 9.21267 156.19 9.418C156.395 9.614 156.638 9.768 156.918 9.88C157.198 9.992 157.496 10.048 157.814 10.048C158.252 10.048 158.644 9.95933 158.99 9.782C159.344 9.59533 159.629 9.292 159.844 8.872H161.076C160.992 9.18 160.856 9.474 160.67 9.754C160.483 10.0247 160.25 10.2627 159.97 10.468C159.699 10.6733 159.382 10.8367 159.018 10.958C158.654 11.0793 158.248 11.14 157.8 11.14ZM157.786 4.924C157.534 4.924 157.286 4.96133 157.044 5.036C156.801 5.11067 156.577 5.22733 156.372 5.386C156.176 5.54467 156.003 5.74533 155.854 5.988C155.704 6.23067 155.602 6.52467 155.546 6.87H159.914C159.802 6.21667 159.55 5.73133 159.158 5.414C158.766 5.08733 158.308 4.924 157.786 4.924ZM163.066 1.06H168.848V2.292H164.368V5.302H167.91V6.534H164.368V11H163.066V1.06ZM170.924 2.124C170.681 2.124 170.476 2.04467 170.308 1.886C170.14 1.718 170.056 1.51267 170.056 1.27C170.056 1.03667 170.14 0.836 170.308 0.668C170.476 0.499999 170.681 0.415999 170.924 0.415999C171.166 0.415999 171.367 0.499999 171.526 0.668C171.684 0.836 171.764 1.03667 171.764 1.27C171.764 1.51267 171.684 1.718 171.526 1.886C171.367 2.04467 171.166 2.124 170.924 2.124ZM170.308 4H171.512V11H170.308V4Z" fill="#898991"/>
</svg>
