<svg width="1904" height="1189" viewBox="0 0 1904 1189" fill="none" xmlns="http://www.w3.org/2000/svg">
<path d="M1295 905.29L1377.92 953.727L1460.52 907.152L1376.85 860.576L1295 905.29Z" stroke="#3A86FF" stroke-opacity="0.15" stroke-miterlimit="10" stroke-linecap="round" stroke-linejoin="round"/>
<path d="M1377.92 953.729V1045.54L1295 999.634V905.292L1377.92 953.729Z" stroke="#3A86FF" stroke-opacity="0.15" stroke-miterlimit="10" stroke-linecap="round" stroke-linejoin="round"/>
<path d="M1377.92 1045.53L1460.52 999.029V907.151L1377.92 953.727V1045.53Z" stroke="#3A86FF" stroke-opacity="0.15" stroke-miterlimit="10" stroke-linecap="round" stroke-linejoin="round"/>
<path d="M885.884 845.389L968.803 893.841L1051.4 847.265L968.644 799.485L885.884 845.389Z" stroke="#3A86FF" stroke-opacity="0.15" stroke-miterlimit="10" stroke-linecap="round" stroke-linejoin="round"/>
<path d="M968.803 893.84V985.648L885.884 939.744V845.388L968.803 893.84Z" stroke="#3A86FF" stroke-opacity="0.15" stroke-miterlimit="10" stroke-linecap="round" stroke-linejoin="round"/>
<path d="M968.804 985.648L1051.56 939.744L1051.4 847.264L968.804 893.84V985.648Z" stroke="#3A86FF" stroke-opacity="0.15" stroke-miterlimit="10" stroke-linecap="round" stroke-linejoin="round"/>
<path d="M478 913.337L560.919 961.774L643.52 915.198L560.76 869.294L478 913.337Z" stroke="#3A86FF" stroke-opacity="0.15" stroke-miterlimit="10" stroke-linecap="round" stroke-linejoin="round"/>
<path d="M560.919 961.776V1053.6L478 1007.68V913.338L560.919 961.776Z" stroke="#3A86FF" stroke-opacity="0.15" stroke-miterlimit="10" stroke-linecap="round" stroke-linejoin="round"/>
<path d="M560.92 1053.6L643.521 1007.09V915.198L560.92 961.773V1053.6Z" stroke="#3A86FF" stroke-opacity="0.15" stroke-miterlimit="10" stroke-linecap="round" stroke-linejoin="round"/>
<path d="M63 1028.37L145.904 1076.81L228.519 1030.23L145.76 982.464L63 1028.37Z" stroke="#3A86FF" stroke-opacity="0.15" stroke-miterlimit="10" stroke-linecap="round" stroke-linejoin="round"/>
<path d="M145.904 1076.8V1168.63L63 1122.71V1028.37L145.904 1076.8Z" stroke="#3A86FF" stroke-opacity="0.15" stroke-miterlimit="10" stroke-linecap="round" stroke-linejoin="round"/>
<path d="M145.903 1168.63L228.518 1122.11V1030.23L145.903 1076.81V1168.63Z" stroke="#3A86FF" stroke-opacity="0.15" stroke-miterlimit="10" stroke-linecap="round" stroke-linejoin="round"/>
<path d="M145.758 753.247L228.677 801.684L311.277 755.108L228.518 707.343L145.758 753.247Z" stroke="#3A86FF" stroke-opacity="0.15" stroke-miterlimit="10" stroke-linecap="round" stroke-linejoin="round"/>
<path d="M228.677 801.683V893.505L145.759 847.601V753.245L228.677 801.683Z" stroke="#3A86FF" stroke-opacity="0.15" stroke-miterlimit="10" stroke-linecap="round" stroke-linejoin="round"/>
<path d="M228.679 893.508L311.279 847.002V755.11L228.679 801.686V893.508Z" stroke="#3A86FF" stroke-opacity="0.15" stroke-miterlimit="10" stroke-linecap="round" stroke-linejoin="round"/>
<path d="M65.7321 479.909L148.636 528.347L231.251 481.771L148.492 434.005L65.7321 479.909Z" stroke="#3A86FF" stroke-opacity="0.15" stroke-miterlimit="10" stroke-linecap="round" stroke-linejoin="round"/>
<path d="M148.636 528.345V620.153L65.7321 574.249V479.907L148.636 528.345Z" stroke="#3A86FF" stroke-opacity="0.15" stroke-miterlimit="10" stroke-linecap="round" stroke-linejoin="round"/>
<path d="M148.635 620.156L231.25 573.65V481.772L148.635 528.348V620.156Z" stroke="#3A86FF" stroke-opacity="0.15" stroke-miterlimit="10" stroke-linecap="round" stroke-linejoin="round"/>
<path d="M65.7318 385.663L148.636 434.115L231.251 387.525L148.491 339.759L65.7318 385.663Z" stroke="#3A86FF" stroke-opacity="0.15" stroke-miterlimit="10" stroke-linecap="round" stroke-linejoin="round"/>
<path d="M148.636 434.114V528.344L65.7318 480.018V385.662L148.636 434.114Z" stroke="#3A86FF" stroke-opacity="0.15" stroke-miterlimit="10" stroke-linecap="round" stroke-linejoin="round"/>
<path d="M148.635 528.347L231.25 481.771V387.527L148.635 434.117V528.347Z" stroke="#3A86FF" stroke-opacity="0.15" stroke-miterlimit="10" stroke-linecap="round" stroke-linejoin="round"/>
<path d="M219 212.845L301.904 261.297L384.519 214.721L301.76 166.941L219 212.845Z" stroke="#3A86FF" stroke-opacity="0.15" stroke-miterlimit="10" stroke-linecap="round" stroke-linejoin="round"/>
<path d="M301.905 261.296V353.104L219.001 307.2V212.844L301.905 261.296Z" stroke="#3A86FF" stroke-opacity="0.15" stroke-miterlimit="10" stroke-linecap="round" stroke-linejoin="round"/>
<path d="M301.904 353.104L384.519 308.459V214.72L301.904 261.296V353.104Z" stroke="#3A86FF" stroke-opacity="0.15" stroke-miterlimit="10" stroke-linecap="round" stroke-linejoin="round"/>
<path d="M-64 51.0758L18.9186 99.5137L101.519 52.9377L18.7596 5.15784L-64 51.0758Z" stroke="#3A86FF" stroke-opacity="0.15" stroke-miterlimit="10" stroke-linecap="round" stroke-linejoin="round"/>
<path d="M18.9186 99.5153V191.323L-64 145.419V51.0774L18.9186 99.5153Z" stroke="#3A86FF" stroke-opacity="0.15" stroke-miterlimit="10" stroke-linecap="round" stroke-linejoin="round"/>
<path d="M18.9198 191.32L101.52 144.814V52.9365L18.9198 99.5125V191.32Z" stroke="#3A86FF" stroke-opacity="0.15" stroke-miterlimit="10" stroke-linecap="round" stroke-linejoin="round"/>
<path d="M384.518 214.117L467.422 262.555L550.037 215.979L467.277 168.213L384.518 214.117Z" stroke="#3A86FF" stroke-opacity="0.15" stroke-miterlimit="10" stroke-linecap="round" stroke-linejoin="round"/>
<path d="M467.422 262.553V354.375L384.518 308.457V214.115L467.422 262.553Z" stroke="#3A86FF" stroke-opacity="0.15" stroke-miterlimit="10" stroke-linecap="round" stroke-linejoin="round"/>
<path d="M467.421 354.378L550.036 307.858V215.98L467.421 262.556V354.378Z" stroke="#3A86FF" stroke-opacity="0.15" stroke-miterlimit="10" stroke-linecap="round" stroke-linejoin="round"/>
<path d="M643.792 345.123L726.551 392.832L809.311 345.053L726.551 297.287L643.792 345.123Z" stroke="#3A86FF" stroke-opacity="0.15" stroke-miterlimit="10" stroke-linecap="round" stroke-linejoin="round"/>
<path d="M726.552 392.834L726.696 483.452L643.937 439.41L643.792 345.124L726.552 392.834Z" stroke="#3A86FF" stroke-opacity="0.15" stroke-miterlimit="10" stroke-linecap="round" stroke-linejoin="round"/>
<path d="M726.696 483.451L809.311 436.945V345.053L726.551 392.833L726.696 483.451Z" stroke="#3A86FF" stroke-opacity="0.15" stroke-miterlimit="10" stroke-linecap="round" stroke-linejoin="round"/>
<path d="M886.592 388.104L969.511 436.542L1052.11 389.966L969.352 342.2L886.592 388.104Z" stroke="#3A86FF" stroke-opacity="0.15" stroke-miterlimit="10" stroke-linecap="round" stroke-linejoin="round"/>
<path d="M969.511 436.541L971.983 528.363L886.593 482.445V388.103L969.511 436.541Z" stroke="#3A86FF" stroke-opacity="0.15" stroke-miterlimit="10" stroke-linecap="round" stroke-linejoin="round"/>
<path d="M971.984 528.366L1054.76 481.86L1052.11 389.968L969.513 436.544L971.984 528.366Z" stroke="#3A86FF" stroke-opacity="0.15" stroke-miterlimit="10" stroke-linecap="round" stroke-linejoin="round"/>
<path d="M843.704 22.1985L926.622 70.6364L1009.22 24.0604L926.463 -23.7054L843.704 22.1985Z" stroke="#3A86FF" stroke-opacity="0.15" stroke-miterlimit="10" stroke-linecap="round" stroke-linejoin="round"/>
<path d="M926.622 70.6351V162.443L843.704 116.539V22.1973L926.622 70.6351Z" stroke="#3A86FF" stroke-opacity="0.15" stroke-miterlimit="10" stroke-linecap="round" stroke-linejoin="round"/>
<path d="M926.624 162.446L1009.22 115.94V24.062L926.624 70.6379V162.446Z" stroke="#3A86FF" stroke-opacity="0.15" stroke-miterlimit="10" stroke-linecap="round" stroke-linejoin="round"/>
<path d="M595.585 68.7098L678.489 117.148L761.104 68.7098L678.344 22.8058L595.585 68.7098Z" stroke="#3A86FF" stroke-opacity="0.15" stroke-miterlimit="10" stroke-linecap="round" stroke-linejoin="round"/>
<path d="M678.489 117.146V208.954L595.585 163.05V68.7084L678.489 117.146Z" stroke="#3A86FF" stroke-opacity="0.15" stroke-miterlimit="10" stroke-linecap="round" stroke-linejoin="round"/>
<path d="M678.488 208.954L761.103 162.448V68.7084L678.488 117.146V208.954Z" stroke="#3A86FF" stroke-opacity="0.15" stroke-miterlimit="10" stroke-linecap="round" stroke-linejoin="round"/>
<path d="M1255.05 95.1117L1337.95 143.55L1420.56 96.9736L1337.8 49.2078L1255.05 95.1117Z" stroke="#3A86FF" stroke-opacity="0.15" stroke-miterlimit="10" stroke-linecap="round" stroke-linejoin="round"/>
<path d="M1337.95 143.548V235.356L1255.05 189.452V95.1097L1337.95 143.548Z" stroke="#3A86FF" stroke-opacity="0.15" stroke-miterlimit="10" stroke-linecap="round" stroke-linejoin="round"/>
<path d="M1337.95 235.358L1420.56 188.852V96.9745L1337.95 143.55V235.358Z" stroke="#3A86FF" stroke-opacity="0.15" stroke-miterlimit="10" stroke-linecap="round" stroke-linejoin="round"/>
<path d="M1337.8 -43.8769L1420.71 4.56094L1503.32 -42.015L1420.56 -89.7809L1337.8 -43.8769Z" stroke="#3A86FF" stroke-opacity="0.15" stroke-miterlimit="10" stroke-linecap="round" stroke-linejoin="round"/>
<path d="M1420.71 4.55968V96.3816L1337.8 49.2037V-43.8782L1420.71 4.55968Z" stroke="#3A86FF" stroke-opacity="0.15" stroke-miterlimit="10" stroke-linecap="round" stroke-linejoin="round"/>
<path d="M1420.71 96.3843L1503.32 49.8784V-42.0135L1420.71 4.5624V96.3843Z" stroke="#3A86FF" stroke-opacity="0.15" stroke-miterlimit="10" stroke-linecap="round" stroke-linejoin="round"/>
<path d="M1819.9 -19.6594V72.1485L1737 26.2445V-68.0973L1819.9 -19.6594Z" stroke="#3A86FF" stroke-opacity="0.15" stroke-miterlimit="10" stroke-linecap="round" stroke-linejoin="round"/>
<path d="M1819.9 72.1512L1902.52 25.6453V-66.2327L1819.9 -19.6567V72.1512Z" stroke="#3A86FF" stroke-opacity="0.15" stroke-miterlimit="10" stroke-linecap="round" stroke-linejoin="round"/>
<path d="M561.032 390.956L643.936 439.408L726.551 392.832L643.792 345.052L561.032 390.956Z" stroke="#3A86FF" stroke-opacity="0.15" stroke-miterlimit="10" stroke-linecap="round" stroke-linejoin="round"/>
<path d="M643.936 439.407V531.215L561.032 485.311V390.955L643.936 439.407Z" stroke="#3A86FF" stroke-opacity="0.15" stroke-miterlimit="10" stroke-linecap="round" stroke-linejoin="round"/>
<path d="M643.935 531.214L726.55 484.709V392.831L643.935 439.407V531.214Z" stroke="#3A86FF" stroke-opacity="0.15" stroke-miterlimit="10" stroke-linecap="round" stroke-linejoin="round"/>
<path d="M395.512 480.581L478.416 529.033L561.031 485.313L478.271 434.677L395.512 480.581Z" stroke="#3A86FF" stroke-opacity="0.15" stroke-miterlimit="10" stroke-linecap="round" stroke-linejoin="round"/>
<path d="M478.416 529.032V620.84L395.512 574.936V480.58L478.416 529.032Z" stroke="#3A86FF" stroke-opacity="0.15" stroke-miterlimit="10" stroke-linecap="round" stroke-linejoin="round"/>
<path d="M478.415 620.844L561.03 574.338V485.316L478.415 529.036V620.844Z" stroke="#3A86FF" stroke-opacity="0.15" stroke-miterlimit="10" stroke-linecap="round" stroke-linejoin="round"/>
<path d="M558.184 611.976L641.102 660.414L723.703 613.838L640.943 566.072L558.184 611.976Z" stroke="#3A86FF" stroke-opacity="0.15" stroke-miterlimit="10" stroke-linecap="round" stroke-linejoin="round"/>
<path d="M641.102 660.412V752.22L558.184 706.316V611.974L641.102 660.412Z" stroke="#3A86FF" stroke-opacity="0.15" stroke-miterlimit="10" stroke-linecap="round" stroke-linejoin="round"/>
<path d="M641.103 752.223L723.704 705.717V613.839L641.103 660.415V752.223Z" stroke="#3A86FF" stroke-opacity="0.15" stroke-miterlimit="10" stroke-linecap="round" stroke-linejoin="round"/>
<path d="M723.705 613.236L806.624 661.688L889.224 615.098L806.465 567.332L723.705 613.236Z" stroke="#3A86FF" stroke-opacity="0.15" stroke-miterlimit="10" stroke-linecap="round" stroke-linejoin="round"/>
<path d="M806.624 661.686V753.494L723.706 707.59V613.234L806.624 661.686Z" stroke="#3A86FF" stroke-opacity="0.15" stroke-miterlimit="10" stroke-linecap="round" stroke-linejoin="round"/>
<path d="M806.625 753.497L889.226 706.991V615.099L806.625 661.689V753.497Z" stroke="#3A86FF" stroke-opacity="0.15" stroke-miterlimit="10" stroke-linecap="round" stroke-linejoin="round"/>
<path d="M806.464 526.486L889.383 574.938L971.983 528.362L886.594 482.444L806.464 526.486Z" stroke="#3A86FF" stroke-opacity="0.15" stroke-miterlimit="10" stroke-linecap="round" stroke-linejoin="round"/>
<path d="M889.383 574.939V666.747L806.464 619.569V526.487L889.383 574.939Z" stroke="#3A86FF" stroke-opacity="0.15" stroke-miterlimit="10" stroke-linecap="round" stroke-linejoin="round"/>
<path d="M889.384 666.747L971.984 620.241V528.363L889.384 574.939V666.747Z" stroke="#3A86FF" stroke-opacity="0.15" stroke-miterlimit="10" stroke-linecap="round" stroke-linejoin="round"/>
<path d="M971.982 528.359L1054.9 576.195L1137.52 529.619L1054.76 481.853L971.982 528.359Z" stroke="#3A86FF" stroke-opacity="0.15" stroke-miterlimit="10" stroke-linecap="round" stroke-linejoin="round"/>
<path d="M1054.9 576.193L1053.15 667.651L971.982 622.097V528.357L1054.9 576.193Z" stroke="#3A86FF" stroke-opacity="0.15" stroke-miterlimit="10" stroke-linecap="round" stroke-linejoin="round"/>
<path d="M1053.15 667.654L1137.52 621.498V529.62L1054.9 576.196L1053.15 667.654Z" stroke="#3A86FF" stroke-opacity="0.15" stroke-miterlimit="10" stroke-linecap="round" stroke-linejoin="round"/>
<path d="M1137.52 435.952L1220.42 484.389L1303.04 437.813L1220.28 390.048L1137.52 435.952Z" stroke="#3A86FF" stroke-opacity="0.15" stroke-miterlimit="10" stroke-linecap="round" stroke-linejoin="round"/>
<path d="M1220.42 484.388V576.196L1137.52 530.292V435.95L1220.42 484.388Z" stroke="#3A86FF" stroke-opacity="0.15" stroke-miterlimit="10" stroke-linecap="round" stroke-linejoin="round"/>
<path d="M1220.42 576.199L1303.03 529.693V437.815L1220.42 484.391V576.199Z" stroke="#3A86FF" stroke-opacity="0.15" stroke-miterlimit="10" stroke-linecap="round" stroke-linejoin="round"/>
<path d="M1394.44 434.679L1477.34 483.117L1559.96 436.541L1477.2 388.775L1394.44 434.679Z" stroke="#3A86FF" stroke-opacity="0.15" stroke-miterlimit="10" stroke-linecap="round" stroke-linejoin="round"/>
<path d="M1477.34 483.115V574.937L1394.44 529.033V434.677L1477.34 483.115Z" stroke="#3A86FF" stroke-opacity="0.15" stroke-miterlimit="10" stroke-linecap="round" stroke-linejoin="round"/>
<path d="M1477.34 574.94L1559.95 528.434V436.542L1477.34 483.118V574.94Z" stroke="#3A86FF" stroke-opacity="0.15" stroke-miterlimit="10" stroke-linecap="round" stroke-linejoin="round"/>
<path d="M1477.2 295.691L1560.1 344.143L1642.72 297.553L1559.96 249.787L1477.2 295.691Z" stroke="#3A86FF" stroke-opacity="0.15" stroke-miterlimit="10" stroke-linecap="round" stroke-linejoin="round"/>
<path d="M1560.1 344.141V435.949L1477.2 390.045V295.689L1560.1 344.141Z" stroke="#3A86FF" stroke-opacity="0.15" stroke-miterlimit="10" stroke-linecap="round" stroke-linejoin="round"/>
<path d="M1560.1 435.952L1642.72 389.446V297.554L1560.1 344.144V435.952Z" stroke="#3A86FF" stroke-opacity="0.15" stroke-miterlimit="10" stroke-linecap="round" stroke-linejoin="round"/>
<path d="M1642.72 390.049L1725.62 438.487L1808.24 391.911L1725.48 344.145L1642.72 390.049Z" stroke="#3A86FF" stroke-opacity="0.15" stroke-miterlimit="10" stroke-linecap="round" stroke-linejoin="round"/>
<path d="M1725.62 438.485L1726 531.196L1643 483.242L1642.72 390.048L1725.62 438.485Z" stroke="#3A86FF" stroke-opacity="0.15" stroke-miterlimit="10" stroke-linecap="round" stroke-linejoin="round"/>
<path d="M1726 531.195L1808.23 484.988V391.912L1725.62 438.488L1726 531.195Z" stroke="#3A86FF" stroke-opacity="0.15" stroke-miterlimit="10" stroke-linecap="round" stroke-linejoin="round"/>
<path d="M1642.86 483.12L1725.78 531.572L1808.38 484.996L1725.62 437.216L1642.86 483.12Z" stroke="#3A86FF" stroke-opacity="0.15" stroke-miterlimit="10" stroke-linecap="round" stroke-linejoin="round"/>
<path d="M1725.78 531.571V623.379L1642.86 577.475V483.08L1725.78 531.571Z" stroke="#3A86FF" stroke-opacity="0.15" stroke-miterlimit="10" stroke-linecap="round" stroke-linejoin="round"/>
<path d="M1725.78 623.379L1808.38 576.873V484.995L1725.78 531.571V623.379Z" stroke="#3A86FF" stroke-opacity="0.15" stroke-miterlimit="10" stroke-linecap="round" stroke-linejoin="round"/>
<path d="M1559.83 623.588L1642.75 672.04L1725.9 623.588L1642.59 577.684L1559.83 623.588Z" stroke="#3A86FF" stroke-opacity="0.15" stroke-miterlimit="10" stroke-linecap="round" stroke-linejoin="round"/>
<path d="M1642.75 672.039V763.847L1559.83 717.943V623.588L1642.75 672.039Z" stroke="#3A86FF" stroke-opacity="0.15" stroke-miterlimit="10" stroke-linecap="round" stroke-linejoin="round"/>
<path d="M1642.75 763.847L1725.35 717.341L1725.9 623.588L1642.75 672.039V763.847Z" stroke="#3A86FF" stroke-opacity="0.15" stroke-miterlimit="10" stroke-linecap="round" stroke-linejoin="round"/>
<path d="M1378.64 1045.4L1461.55 1093.85L1544.16 1047.26L1460.46 999.313L1378.64 1045.4Z" stroke="#3A86FF" stroke-opacity="0.15" stroke-miterlimit="10" stroke-linecap="round" stroke-linejoin="round"/>
<path d="M1461.55 1093.85L1461 1188.02L1378.5 1140.55L1378.64 1045.4L1461.55 1093.85Z" stroke="#3A86FF" stroke-opacity="0.15" stroke-miterlimit="10" stroke-linecap="round" stroke-linejoin="round"/>
<path d="M1460.89 1188.37L1543.5 1141.86L1544 1047.55L1461.5 1094.05L1460.89 1188.37Z" stroke="#3A86FF" stroke-opacity="0.15" stroke-miterlimit="10" stroke-linecap="round" stroke-linejoin="round"/>
<path d="M1639.42 1029.23L1722.33 1077.67L1804.94 1031.1L1721.26 984.52L1639.42 1029.23Z" stroke="#3A86FF" stroke-opacity="0.15" stroke-miterlimit="10" stroke-linecap="round" stroke-linejoin="round"/>
<path d="M1722.33 1077.67V1169.48L1639.42 1123.58V1029.24L1722.33 1077.67Z" stroke="#3A86FF" stroke-opacity="0.15" stroke-miterlimit="10" stroke-linecap="round" stroke-linejoin="round"/>
<path d="M1722.33 1169.48L1804.94 1122.97V1031.1L1722.33 1077.67V1169.48Z" stroke="#3A86FF" stroke-opacity="0.15" stroke-miterlimit="10" stroke-linecap="round" stroke-linejoin="round"/>
<path d="M1722.18 753.07L1805.08 801.507L1887.7 754.932L1804.02 708.356L1722.18 753.07Z" stroke="#3A86FF" stroke-opacity="0.15" stroke-miterlimit="10" stroke-linecap="round" stroke-linejoin="round"/>
<path d="M1805.08 801.509V893.331L1722.18 847.413V753.072L1805.08 801.509Z" stroke="#3A86FF" stroke-opacity="0.15" stroke-miterlimit="10" stroke-linecap="round" stroke-linejoin="round"/>
<path d="M1805.08 893.329L1887.7 846.809V754.931L1805.08 801.507V893.329Z" stroke="#3A86FF" stroke-opacity="0.15" stroke-miterlimit="10" stroke-linecap="round" stroke-linejoin="round"/>
<path d="M1310.82 669.969L1393.74 718.407L1476.34 671.831L1392.67 625.255L1310.82 669.969Z" stroke="#3A86FF" stroke-opacity="0.15" stroke-miterlimit="10" stroke-linecap="round" stroke-linejoin="round"/>
<path d="M1393.74 718.408L1394.51 810.902L1310.83 764.312V669.971L1393.74 718.408Z" stroke="#3A86FF" stroke-opacity="0.15" stroke-miterlimit="10" stroke-linecap="round" stroke-linejoin="round"/>
<path d="M1394.51 810.9L1476.35 763.708V671.83L1393.75 718.406L1394.51 810.9Z" stroke="#3A86FF" stroke-opacity="0.15" stroke-miterlimit="10" stroke-linecap="round" stroke-linejoin="round"/>
<path d="M847.923 733.942L968.645 799.487" stroke="#3A86FF" stroke-opacity="0.15" stroke-miterlimit="10" stroke-linecap="round" stroke-linejoin="round"/>
<path d="M1054.9 576.197L1051.41 752.911" stroke="#3A86FF" stroke-opacity="0.15" stroke-miterlimit="10" stroke-linecap="round" stroke-linejoin="round"/>
<path d="M761.723 411.229L886.593 482.443" stroke="#3A86FF" stroke-opacity="0.15" stroke-miterlimit="10" stroke-linecap="round" stroke-linejoin="round"/>
<path d="M726.55 182.563V339.44" stroke="#3A86FF" stroke-opacity="0.15" stroke-miterlimit="10" stroke-linecap="round" stroke-linejoin="round"/>
<path d="M478.417 620.842L475.426 802.596" stroke="#3A86FF" stroke-opacity="0.15" stroke-miterlimit="10" stroke-linecap="round" stroke-linejoin="round"/>
<path d="M969.512 139.766L968.082 392.833" stroke="#3A86FF" stroke-opacity="0.15" stroke-miterlimit="10" stroke-linecap="round" stroke-linejoin="round"/>
</svg>
