<svg width="375" height="2295" viewBox="0 0 375 2295" fill="none" xmlns="http://www.w3.org/2000/svg">
<path d="M53.9355 484.145L110.187 518.074L166.222 485.459L110.079 452L53.9355 484.145Z" stroke="#3A86FF" stroke-opacity="0.15" stroke-miterlimit="10" stroke-linecap="round" stroke-linejoin="round"/>
<path d="M110.187 518.074V582.364L53.9355 550.219V484.145L110.187 518.074Z" stroke="#3A86FF" stroke-opacity="0.15" stroke-miterlimit="10" stroke-linecap="round" stroke-linejoin="round"/>
<path d="M110.188 582.367L166.331 550.222L166.223 485.462L110.188 518.077V582.367Z" stroke="#3A86FF" stroke-opacity="0.15" stroke-miterlimit="10" stroke-linecap="round" stroke-linejoin="round"/>
<path d="M-102 686.841L-45.7489 720.76L10.2865 688.145L-45.8567 656L-102 686.841Z" stroke="#3A86FF" stroke-opacity="0.15" stroke-miterlimit="10" stroke-linecap="round" stroke-linejoin="round"/>
<path d="M-45.748 785.056L10.2874 752.49V688.141L-45.748 720.756V785.056Z" stroke="#3A86FF" stroke-opacity="0.15" stroke-miterlimit="10" stroke-linecap="round" stroke-linejoin="round"/>
<path d="M306.58 32.9144L362.831 66.8337L418.867 34.2182L362.723 0.769531L306.58 32.9144Z" stroke="#3A86FF" stroke-opacity="0.15" stroke-miterlimit="10" stroke-linecap="round" stroke-linejoin="round"/>
<path d="M362.831 66.8338L364.508 131.133L306.58 98.9787V32.9146L362.831 66.8338Z" stroke="#3A86FF" stroke-opacity="0.15" stroke-miterlimit="10" stroke-linecap="round" stroke-linejoin="round"/>
<path d="M364.508 131.135L420.661 98.569L418.867 34.2205L362.832 66.8359L364.508 131.135Z" stroke="#3A86FF" stroke-opacity="0.15" stroke-miterlimit="10" stroke-linecap="round" stroke-linejoin="round"/>
<path d="M-85.0642 53.9418L-28.8229 87.861L27.2223 53.9418L-28.9209 21.7969L-85.0642 53.9418Z" stroke="#3A86FF" stroke-opacity="0.15" stroke-miterlimit="10" stroke-linecap="round" stroke-linejoin="round"/>
<path d="M-28.8232 152.15L27.222 119.584V53.9414L-28.8232 87.8607V152.15Z" stroke="#3A86FF" stroke-opacity="0.15" stroke-miterlimit="10" stroke-linecap="round" stroke-linejoin="round"/>
<path d="M-31.0645 434.145L25.1867 468.074L81.2221 435.449L25.0788 402L-31.0645 434.145Z" stroke="#3A86FF" stroke-opacity="0.15" stroke-miterlimit="10" stroke-linecap="round" stroke-linejoin="round"/>
<path d="M25.1874 468.077V532.367L-31.0637 500.222V434.148L25.1874 468.077Z" stroke="#3A86FF" stroke-opacity="0.15" stroke-miterlimit="10" stroke-linecap="round" stroke-linejoin="round"/>
<path d="M25.1899 532.366L81.2253 499.799V435.451L25.1899 468.076V532.366Z" stroke="#3A86FF" stroke-opacity="0.15" stroke-miterlimit="10" stroke-linecap="round" stroke-linejoin="round"/>
<path d="M252.227 129.822L308.478 163.751L364.513 131.135L306.586 98.9805L252.227 129.822Z" stroke="#3A86FF" stroke-opacity="0.15" stroke-miterlimit="10" stroke-linecap="round" stroke-linejoin="round"/>
<path d="M308.478 163.752V228.042L252.227 195.005V129.823L308.478 163.752Z" stroke="#3A86FF" stroke-opacity="0.15" stroke-miterlimit="10" stroke-linecap="round" stroke-linejoin="round"/>
<path d="M308.479 228.038L364.514 195.471V131.133L308.479 163.748V228.038Z" stroke="#3A86FF" stroke-opacity="0.15" stroke-miterlimit="10" stroke-linecap="round" stroke-linejoin="round"/>
<path d="M364.508 131.133L420.759 164.631L476.804 132.015L420.661 98.5664L364.508 131.133Z" stroke="#3A86FF" stroke-opacity="0.15" stroke-miterlimit="10" stroke-linecap="round" stroke-linejoin="round"/>
<path d="M420.76 164.628L419.573 228.673L364.509 196.773V131.13L420.76 164.628Z" stroke="#3A86FF" stroke-opacity="0.15" stroke-miterlimit="10" stroke-linecap="round" stroke-linejoin="round"/>
<path d="M314.03 311.11L370.271 345.03L426.317 312.414L370.173 278.965L314.03 311.11Z" stroke="#3A86FF" stroke-opacity="0.15" stroke-miterlimit="10" stroke-linecap="round" stroke-linejoin="round"/>
<path d="M370.271 345.03V409.319L314.03 377.174V311.11L370.271 345.03Z" stroke="#3A86FF" stroke-opacity="0.15" stroke-miterlimit="10" stroke-linecap="round" stroke-linejoin="round"/>
<path d="M370.271 409.321L426.316 376.755V312.416L370.271 345.032V409.321Z" stroke="#3A86FF" stroke-opacity="0.15" stroke-miterlimit="10" stroke-linecap="round" stroke-linejoin="round"/>
<path d="M4.93555 520.5L53.4355 550" stroke="#3A86FF" stroke-opacity="0.15" stroke-miterlimit="10" stroke-linecap="round" stroke-linejoin="round"/>
<path d="M315.936 1350.14L372.187 1384.07L428.222 1351.45L372.079 1318L315.936 1350.14Z" stroke="#3A86FF" stroke-opacity="0.15" stroke-miterlimit="10" stroke-linecap="round" stroke-linejoin="round"/>
<path d="M372.187 1384.08V1448.37L315.936 1416.22V1350.15L372.187 1384.08Z" stroke="#3A86FF" stroke-opacity="0.15" stroke-miterlimit="10" stroke-linecap="round" stroke-linejoin="round"/>
<path d="M372.19 1448.37L428.225 1415.8V1351.45L372.19 1384.08V1448.37Z" stroke="#3A86FF" stroke-opacity="0.15" stroke-miterlimit="10" stroke-linecap="round" stroke-linejoin="round"/>
<path d="M203.936 1350.14L260.187 1384.07L316.222 1351.45L260.079 1318L203.936 1350.14Z" stroke="#3A86FF" stroke-opacity="0.15" stroke-miterlimit="10" stroke-linecap="round" stroke-linejoin="round"/>
<path d="M260.187 1384.08V1448.37L203.936 1416.22V1350.15L260.187 1384.08Z" stroke="#3A86FF" stroke-opacity="0.15" stroke-miterlimit="10" stroke-linecap="round" stroke-linejoin="round"/>
<path d="M260.19 1448.37L316.225 1415.8V1351.45L260.19 1384.08V1448.37Z" stroke="#3A86FF" stroke-opacity="0.15" stroke-miterlimit="10" stroke-linecap="round" stroke-linejoin="round"/>
<path d="M302.936 2138.14L359.187 2172.07L415.222 2139.45L359.079 2106L302.936 2138.14Z" stroke="#3A86FF" stroke-opacity="0.15" stroke-miterlimit="10" stroke-linecap="round" stroke-linejoin="round"/>
<path d="M359.187 2172.08V2236.37L302.936 2204.22V2138.15L359.187 2172.08Z" stroke="#3A86FF" stroke-opacity="0.15" stroke-miterlimit="10" stroke-linecap="round" stroke-linejoin="round"/>
<path d="M359.19 2236.37L415.225 2203.8V2139.45L359.19 2172.08V2236.37Z" stroke="#3A86FF" stroke-opacity="0.15" stroke-miterlimit="10" stroke-linecap="round" stroke-linejoin="round"/>
<path d="M306.936 690.145L363.187 724.074L419.222 691.459L363.079 658L306.936 690.145Z" stroke="#3A86FF" stroke-opacity="0.15" stroke-miterlimit="10" stroke-linecap="round" stroke-linejoin="round"/>
<path d="M363.187 724.074V788.364L306.936 756.219V690.145L363.187 724.074Z" stroke="#3A86FF" stroke-opacity="0.15" stroke-miterlimit="10" stroke-linecap="round" stroke-linejoin="round"/>
<path d="M363.188 788.367L419.331 756.222L419.223 691.462L363.188 724.077V788.367Z" stroke="#3A86FF" stroke-opacity="0.15" stroke-miterlimit="10" stroke-linecap="round" stroke-linejoin="round"/>
<path d="M-72.0645 2196.14L-15.8133 2230.07L40.2221 2197.45L-15.9212 2164L-72.0645 2196.14Z" stroke="#3A86FF" stroke-opacity="0.15" stroke-miterlimit="10" stroke-linecap="round" stroke-linejoin="round"/>
<path d="M-15.8101 2294.37L40.2253 2261.8V2197.45L-15.8101 2230.08V2294.37Z" stroke="#3A86FF" stroke-opacity="0.15" stroke-miterlimit="10" stroke-linecap="round" stroke-linejoin="round"/>
</svg>
