<svg width="21" height="29" viewBox="0 0 21 29" fill="none" xmlns="http://www.w3.org/2000/svg">
<path fill-rule="evenodd" clip-rule="evenodd" d="M9.15211 0.0550469L16.2358 3.98013C16.5117 4.1333 16.5117 4.51305 16.2358 4.66622L9.15211 8.5913C9.02579 8.66151 8.86623 8.66151 8.73992 8.5913L1.65627 4.66622C1.38037 4.51305 1.38037 4.1333 1.65627 3.98013L8.73992 0.0550469C8.86956 -0.018349 9.02579 -0.018349 9.15211 0.0550469Z" fill="#0A2540"/>
<path fill-rule="evenodd" clip-rule="evenodd" d="M17.8737 6.17705V14.0304C17.8737 14.1708 17.7939 14.3017 17.6676 14.3751L10.4244 18.3799C10.1485 18.5331 9.80615 18.3416 9.80615 18.0353V10.1851C9.80615 10.0447 9.88593 9.91386 10.0122 9.84046L17.2521 5.82922C17.528 5.67924 17.8737 5.8707 17.8737 6.17705Z" fill="#0A2540"/>
<path fill-rule="evenodd" clip-rule="evenodd" d="M19.8715 14.9575L10.0122 20.4048C9.88593 20.475 9.80615 20.6058 9.80615 20.7494V28.6028C9.80615 28.9091 10.1485 29.0974 10.4244 28.9474L20.2804 23.497C20.4067 23.4268 20.4865 23.2959 20.4865 23.1523V15.299C20.4898 14.9958 20.1441 14.8043 19.8715 14.9575Z" fill="#0A2540"/>
<path fill-rule="evenodd" clip-rule="evenodd" d="M0 14.0244V6.1742C0 5.86785 0.342382 5.67958 0.618281 5.82956L7.85483 9.8408C7.98115 9.91101 8.06093 10.0418 8.06093 10.1854V18.0356C8.06093 18.342 7.71855 18.5302 7.44265 18.3802L0.206094 14.3658C0.0797783 14.2956 0 14.1648 0 14.0244Z" fill="#0A2540"/>
<path fill-rule="evenodd" clip-rule="evenodd" d="M0 16.7387V24.592C0 24.7324 0.0797783 24.8633 0.206094 24.9366L7.44265 28.9447C7.71855 29.0979 8.06093 28.9064 8.06093 28.6001V20.7499C8.06093 20.6095 7.98115 20.4786 7.85483 20.4053L0.618281 16.394C0.342382 16.244 0 16.4323 0 16.7387Z" fill="#0A2540"/>
</svg>
