<svg width="21" height="15" viewBox="0 0 21 15" fill="none" xmlns="http://www.w3.org/2000/svg">
<path d="M13.2172 14.0042L13.888 14.7161C14.1721 15.0175 14.6314 15.0175 14.9124 14.7161L20.787 8.48546C21.071 8.18403 21.071 7.69661 20.787 7.39838L14.9124 1.16452C14.6284 0.863089 14.1691 0.863089 13.888 1.16452L13.2172 1.87641C12.9301 2.18105 12.9361 2.67809 13.2293 2.97632L16.8706 6.65763L0.725247 6.65763C0.323339 6.65763 -2.69134e-07 7.00075 -2.88069e-07 7.42724L-3.33625e-07 8.45339C-3.52559e-07 8.87989 0.323339 9.22301 0.725247 9.22301L16.8706 9.223L13.2293 12.9043C12.9331 13.2025 12.9271 13.6996 13.2172 14.0042Z" fill="#3A86FF"/>
</svg>
