<svg width="28" height="28" viewBox="0 0 28 28" fill="none" xmlns="http://www.w3.org/2000/svg">
<path d="M20.7425 28C20.7425 28 19.7063 26.5667 18.845 25.2998C22.6124 24.0671 24.0517 21.3328 24.0517 21.3328C22.8719 22.2328 21.7512 22.8663 20.7444 23.2992C19.3071 23.9987 17.9248 24.4659 16.574 24.7325C13.8133 25.3317 14.0448 25.1654 11.8878 24.6983C10.248 24.3314 8.83813 23.7982 7.66034 23.265C6.99967 22.9643 6.28001 22.5974 5.56036 22.1326C5.47384 22.0665 5.38732 22.0323 5.30081 21.9662C5.24379 21.932 5.21429 21.9001 5.1848 21.866C4.66767 21.5333 4.37863 21.2986 4.37863 21.2986C4.37863 21.2986 5.75895 23.9646 9.41229 25.2315C8.54909 26.4984 7.48534 27.9977 7.48534 27.9977C1.12837 27.7676 0 22.9346 0 22.9346C0 12.2023 2.85476 3.50254 2.85476 3.50254C6.99574 -0.0999672 10.9361 0.000292416 10.9361 0.000292416L11.2232 0.40133C6.04603 2.13308 3.65897 4.76717 3.65897 4.76717C3.65897 4.76717 4.29211 4.36613 5.35587 3.80104C8.43308 2.23334 10.8791 1.8004 11.8859 1.70015C12.0589 1.66597 12.2024 1.63407 12.3755 1.63407C14.1294 1.36747 13.3493 1.30137 15.4217 1.56797C18.1549 1.93483 21.0885 2.86907 24.0792 4.76716C24.0792 4.76716 21.8062 2.26751 16.9161 0.533477L17.3192 0.000279062C17.3192 0.000279062 21.2596 -0.0999806 25.4025 3.50024C25.4025 3.50024 28 12.1978 28 22.9301C27.998 22.9323 27.0994 27.7676 20.7425 28ZM10.1319 12.4347C8.49207 12.4347 7.19826 14.1004 7.19826 16.1352C7.19826 18.1678 8.52157 19.8357 10.1319 19.8357C11.7699 19.8334 13.0656 18.1678 13.0656 16.1329C13.0932 14.1004 11.7699 12.4347 10.1319 12.4347ZM17.8658 12.4347C16.2259 12.4347 14.9321 14.1004 14.9321 16.1352C14.9321 18.1677 16.2554 19.8357 17.8658 19.8357C19.5057 19.8357 20.7995 18.17 20.7995 16.1352C20.7995 14.1004 19.5057 12.4347 17.8658 12.4347Z" fill="#3A86FF"/>
</svg>
