<svg width="46" height="54" viewBox="0 0 46 54" fill="none" xmlns="http://www.w3.org/2000/svg">
<path d="M17.3356 14.766L10.3651 3.85552C10.3651 3.85552 15.5515 -0.4541 20.3665 2.6521C20.3665 2.6521 23.5197 4.39773 27.506 2.29175C27.506 2.29175 30.8739 0.252008 34.1395 3.0394L27.7752 14.7648H17.3356V14.766Z" stroke="#3A86FF" stroke-width="3" stroke-miterlimit="10" stroke-linecap="round" stroke-linejoin="round"/>
<path d="M17.3336 14.7642C17.3336 14.7642 2.00667 25 2 41.6503C1.99778 47.2497 6.57805 51.7513 12.1215 51.51C12.4808 51.4942 12.8534 51.4673 13.2393 51.4291C13.583 51.3943 13.9289 51.3775 14.2749 51.3797L35.0095 51.5268C35.0095 51.5268 43.9565 51.5526 43.9999 41.3752C44.0032 40.6736 43.9254 39.9742 43.7763 39.2894C42.9488 35.4872 39.225 21.6154 27.7732 14.7653" stroke="#3A86FF" stroke-width="3" stroke-miterlimit="10" stroke-linecap="round" stroke-linejoin="round"/>
<path d="M27.2105 27.7969H22.0953C21.2288 27.7969 20.3713 28.0383 19.6527 28.5277C18.9164 29.0284 18.2235 29.8389 18.2513 31.1097C18.2824 32.5747 19.3024 33.8275 20.7016 34.2137C21.6348 34.4707 22.8505 34.7087 24.0295 34.6504C25.7868 34.5639 27.3462 35.8201 27.5442 37.5848C27.5509 37.6421 27.5564 37.7004 27.5609 37.7599C27.6821 39.3125 26.5343 40.6742 25.0016 40.8527C23.4611 41.0323 21.2377 41.2052 18.7351 41.1333" stroke="#3A86FF" stroke-width="3" stroke-miterlimit="10" stroke-linecap="round" stroke-linejoin="round"/>
<path d="M22.9091 24.8752V27.6503" stroke="#3A86FF" stroke-width="3" stroke-miterlimit="10" stroke-linecap="round" stroke-linejoin="round"/>
<path d="M22.9091 41.2868V44.0619" stroke="#3A86FF" stroke-width="3" stroke-miterlimit="10" stroke-linecap="round" stroke-linejoin="round"/>
</svg>
