<svg width="19" height="23" viewBox="0 0 19 23" fill="none" xmlns="http://www.w3.org/2000/svg">
<path d="M7.29895 6.82967L4.57568 2.5434C4.57568 2.5434 6.60195 0.850328 8.48308 2.07063C8.48308 2.07063 9.715 2.75641 11.2724 1.92906C11.2724 1.92906 12.5882 1.12773 13.864 2.22278L11.3776 6.82923H7.29895V6.82967Z" stroke="white" stroke-width="1.5" stroke-miterlimit="10" stroke-linecap="round" stroke-linejoin="round"/>
<path d="M7.29858 6.8288C7.29858 6.8288 1.31059 10.85 1.30798 17.3912C1.30711 19.591 3.09656 21.3595 5.26232 21.2647C5.40267 21.2585 5.54825 21.2479 5.69903 21.2329C5.8333 21.2193 5.96845 21.2127 6.10359 21.2135L14.2043 21.2713C14.2043 21.2713 17.6998 21.2815 17.7167 17.2832C17.718 17.0075 17.6876 16.7328 17.6294 16.4638C17.3061 14.97 15.8512 9.52034 11.3772 6.82924" stroke="white" stroke-width="1.5" stroke-miterlimit="10" stroke-linecap="round" stroke-linejoin="round"/>
<path d="M11.1591 11.9458H9.16066C8.82216 11.9458 8.48712 12.0406 8.20641 12.2329C7.91874 12.4296 7.64802 12.748 7.65889 13.2473C7.67105 13.8228 8.06953 14.315 8.61618 14.4667C8.98076 14.5677 9.45572 14.6612 9.91633 14.6382C10.6029 14.6043 11.2121 15.0978 11.2895 15.7911C11.2921 15.8135 11.2943 15.8365 11.296 15.8599C11.3434 16.4698 10.8949 17.0047 10.2961 17.0749C9.69428 17.1454 8.82563 17.2133 7.84791 17.1851" stroke="white" stroke-width="1.5" stroke-miterlimit="10" stroke-linecap="round" stroke-linejoin="round"/>
<path d="M9.47852 10.7988V11.889" stroke="white" stroke-width="1.5" stroke-miterlimit="10" stroke-linecap="round" stroke-linejoin="round"/>
<path d="M9.47852 17.2476V18.3378" stroke="white" stroke-width="1.5" stroke-miterlimit="10" stroke-linecap="round" stroke-linejoin="round"/>
</svg>
