<svg width="28" height="28" viewBox="0 0 28 28" fill="none" xmlns="http://www.w3.org/2000/svg">
<path fill-rule="evenodd" clip-rule="evenodd" d="M23.8 15.3964H26.6C27.3744 15.3964 28 16.0616 28 16.885V26.5114C28 27.3348 27.3744 28 26.6 28H1.4C0.625625 28 0 27.3348 0 26.5114V16.885C0 16.0616 0.625625 15.3964 1.4 15.3964H4.2V20.9539H3.22C2.98813 20.9539 2.8 21.1213 2.8 21.326V22.0703C2.8 22.275 2.98813 22.4425 3.22 22.4425H24.78C25.0119 22.4425 25.2 22.275 25.2 22.0703V21.326C25.2 21.1213 25.0119 20.9539 24.78 20.9539H23.8V15.3964ZM22.4 1.50257V20.9539H5.6V1.50257C5.6 0.674531 6.23438 0 7.0175 0H20.9869C21.7656 0 22.4 0.669879 22.4 1.50257ZM12.0961 14.9517C12.1123 14.9691 12.1317 14.9725 12.1457 14.9725C12.1581 14.9725 12.1818 14.9691 12.1996 14.9517L18.555 8.3918C18.5825 8.36373 18.5815 8.31208 18.555 8.28402L17.3011 6.96766C17.2849 6.95026 17.2655 6.94689 17.2515 6.94689C17.2391 6.94689 17.2148 6.94969 17.1976 6.96766L12.1581 12.1708L9.7883 9.68458C9.77212 9.66717 9.7527 9.66381 9.73868 9.66381C9.72628 9.66381 9.70255 9.66661 9.68475 9.68458L8.42003 10.9897C8.39252 11.0178 8.39414 11.0694 8.42003 11.0975L12.0961 14.9517Z" fill="#5194FE"/>
</svg>
