<svg width="30" height="25" viewBox="0 0 30 25" fill="none" xmlns="http://www.w3.org/2000/svg">
<path d="M8.96443 24.9286C5.93369 24.9286 2.97963 24.9286 0.0220028 24.9286C-0.0341716 24.6311 0.0139813 24.3984 0.203904 24.161C1.21237 22.9007 2.203 21.6245 3.20076 20.3548C3.48609 19.9917 3.61717 19.5797 3.57348 19.1077C3.56189 18.9791 3.56099 18.8496 3.56099 18.7201C3.56189 14.1558 3.56278 9.5914 3.56367 5.02702C3.56367 4.70327 3.46558 4.41893 3.26853 4.17026C2.34477 3.00383 1.41478 1.84303 0.506177 0.664396C0.40542 0.53302 0.418793 0.300296 0.392935 0.112616C0.389368 0.0844643 0.460702 0.0244067 0.505285 0.0131459C0.574834 -0.00468369 0.651514 0.00563872 0.725521 0.00563872C3.41476 0.00563872 6.10399 0.00845397 8.79234 8.3695e-06C9.00723 -0.000930031 9.10532 0.0769571 9.19092 0.276836C11.3568 5.28132 13.5288 10.2821 15.7 15.2837C15.7223 15.3353 15.7517 15.3841 15.8008 15.4789C15.9363 15.1298 16.0567 14.823 16.1744 14.5152C17.9916 9.75749 19.8088 4.9998 21.6224 0.240239C21.6848 0.0750803 21.7561 0.000946791 21.938 0.000946791C24.5452 0.00751559 27.1524 0.00563874 29.7597 0.00657714C29.831 0.00657714 29.9032 0.017838 29.9781 0.0234684C30.0307 0.320941 29.9986 0.548034 29.7695 0.768558C29.0436 1.46673 28.3464 2.19868 27.6295 2.90717C27.4164 3.11831 27.3174 3.34916 27.3299 3.66071C27.3495 4.15149 27.3361 4.64415 27.3361 5.13587C27.3361 10.451 27.3433 15.7661 27.3254 21.0812C27.3237 21.5935 27.4556 21.9567 27.815 22.2992C28.4587 22.912 29.0517 23.5839 29.6883 24.206C29.9148 24.4275 29.9852 24.6583 29.9157 24.9999C29.8319 24.9999 29.7383 24.9999 29.6437 24.9999C25.938 24.9999 22.2323 25.0009 18.5266 24.9962C18.416 24.9962 18.2181 24.9624 18.2091 24.9136C18.1753 24.7306 18.1271 24.5307 18.2965 24.3618C19.0027 23.6533 19.6875 22.9214 20.4053 22.2269C20.7263 21.9154 20.8591 21.5841 20.8574 21.1206C20.8431 16.5478 20.8493 11.9749 20.8493 7.40211C20.8493 7.31578 20.8493 7.23038 20.8493 7.14405C20.8342 7.13654 20.819 7.12903 20.8039 7.12247C20.7655 7.20411 20.7227 7.28387 20.6906 7.36926C19.6706 10.0859 18.6523 12.8035 17.6322 15.5211C16.4802 18.5907 15.3255 21.6602 14.1779 24.7315C14.1146 24.9014 14.038 24.9661 13.8605 24.9643C13.1873 24.9577 13.19 24.9633 12.9064 24.3121C10.4294 18.6329 7.9524 12.9527 5.47449 7.27449C5.44774 7.21443 5.41653 7.15625 5.33539 7.09994C5.33539 7.18815 5.33539 7.27636 5.33539 7.36363C5.33539 11.0994 5.33539 14.8361 5.3345 18.5719C5.3345 18.7699 5.32915 18.9688 5.32202 19.1668C5.30686 19.6088 5.43793 19.9964 5.70632 20.3361C6.74153 21.6508 7.7821 22.9617 8.80126 24.2914C8.91718 24.4369 8.90826 24.6912 8.96443 24.9286Z" fill="#3A86FF"/>
</svg>
