<svg width="30" height="25" viewBox="0 0 30 25" fill="none" xmlns="http://www.w3.org/2000/svg">
<path d="M9.0191 19.1921C6.18951 18.9371 4.30187 17.5326 3.25422 14.8738C4.19803 15.0286 5.06861 15.0027 5.93825 14.7654C4.53922 14.3964 3.36269 13.6881 2.46153 12.5534C1.56314 11.4205 1.11163 10.1319 1.11534 8.63932C1.98313 9.06206 2.85092 9.36336 3.87354 9.36985C2.52921 8.3955 1.66605 7.16992 1.3193 5.61153C0.972558 4.05128 1.20156 2.56983 1.98962 1.15143C5.3384 5.08125 9.56054 7.24965 14.7246 7.60379C14.6838 7.20423 14.631 6.84823 14.6152 6.49131C14.5216 4.44436 15.2763 2.74598 16.8255 1.43418C18.8837 -0.3087 21.857 -0.471864 24.1183 0.992898C24.479 1.22652 24.7997 1.52318 25.1261 1.80501C25.2475 1.91069 25.3486 1.94407 25.5108 1.90698C26.6753 1.64184 27.7897 1.24784 28.8327 0.659154C28.9338 0.601676 29.0423 0.557178 29.1619 0.4997C29.0237 1.42862 28.1513 2.56891 26.6688 3.84918C27.036 3.78521 27.4068 3.73515 27.7703 3.65172C28.1448 3.56643 28.5157 3.45796 28.8819 3.34115C29.2462 3.22434 29.6032 3.08435 30 2.99072C29.7293 3.3393 29.4697 3.69807 29.1869 4.03552C28.5778 4.76327 27.8861 5.40572 27.1315 5.98328C27.0425 6.05096 26.9739 6.20949 26.9776 6.32352C27.035 8.11182 26.8144 9.86768 26.3332 11.5855C25.9234 13.0494 25.3384 14.4455 24.5828 15.7703C23.7706 17.1943 22.7925 18.4866 21.629 19.6389C20.0528 21.1992 18.2366 22.3988 16.1802 23.2285C14.2481 24.0082 12.2372 24.4133 10.1567 24.4866C8.68255 24.5385 7.21676 24.4439 5.77415 24.1352C4.17486 23.7931 2.64046 23.2554 1.19785 22.4758C0.792695 22.257 0.394956 22.0224 0 21.7712C3.32375 22.0539 6.31745 21.2363 9.0191 19.1921Z" fill="#3A86FF"/>
</svg>
