<svg width="30" height="30" viewBox="0 0 30 30" fill="none" xmlns="http://www.w3.org/2000/svg">
<path d="M15 0C6.7218 0 0 6.7218 0 15C0 23.2782 6.7218 30 15 30C23.2782 30 30 23.2782 30 15C30 6.7218 23.2782 0 15 0ZM14.3233 5.2782L18.8346 7.82707L14.3233 10.3534L9.81203 7.82707L14.3233 5.2782ZM19.8496 9.31579V14.4135L15.2481 17.0075V11.9098L19.8496 9.31579ZM8.79699 9.31579L13.3985 11.9098V17.0075L8.79699 14.4135V9.31579ZM14.3459 26.25L8.86466 18L14.3459 21L26.6391 13.5L14.3459 26.25Z" fill="#5194FE"/>
</svg>
